<svg width="607" height="590" xmlns="http://www.w3.org/2000/svg" xmlns:xlink="http://www.w3.org/1999/xlink" overflow="hidden"><defs><clipPath id="clip0"><rect x="169" y="46" width="607" height="590"/></clipPath></defs><g clip-path="url(#clip0)" transform="translate(-169 -46)"><rect x="170.5" y="48.5001" width="605" height="586" stroke="#D9D9D9" stroke-width="1.33333" stroke-miterlimit="8" fill="none"/><path d="M193.5 100C193.5 95.858 196.858 92.5001 201 92.5001L262 92.5001C266.142 92.5001 269.5 95.858 269.5 100L269.5 130C269.5 134.142 266.142 137.5 262 137.5L201 137.5C196.858 137.5 193.5 134.142 193.5 130Z" stroke="#4472C4" stroke-width="1.33333" stroke-miterlimit="8" fill="#FFFFFF" fill-rule="evenodd"/><text font-family="Yu Gothic,Yu Gothic_MSFontService,sans-serif" font-weight="400" font-size="11" transform="translate(206.833 112)">Front</text><text font-family="Yu Gothic,Yu Gothic_MSFontService,sans-serif" font-weight="400" font-size="11" transform="translate(236.167 112)">End</text><text font-family="Yu Gothic,Yu Gothic_MSFontService,sans-serif" font-weight="400" font-size="11" transform="translate(221.333 125)">Ap</text><text font-family="Yu Gothic,Yu Gothic_MSFontService,sans-serif" font-weight="400" font-size="11" transform="translate(234.5 125)">p</text><path d="M339.5 147C339.5 142.858 342.858 139.5 347 139.5L445 139.5C449.142 139.5 452.5 142.858 452.5 147L452.5 177C452.5 181.142 449.142 184.5 445 184.5L347 184.5C342.858 184.5 339.5 181.142 339.5 177Z" stroke="#4472C4" stroke-width="1.33333" stroke-miterlimit="8" fill="#FFFFFF" fill-rule="evenodd"/><text font-family="Yu Gothic,Yu Gothic_MSFontService,sans-serif" font-weight="400" font-size="11" transform="translate(356.844 166)">DomainAdaptor</text><path d="M480.5 216C480.5 211.858 483.858 208.5 488 208.5L608 208.5C612.142 208.5 615.5 211.858 615.5 216L615.5 246C615.5 250.142 612.142 253.5 608 253.5L488 253.5C483.858 253.5 480.5 250.142 480.5 246Z" stroke="#4472C4" stroke-width="1.33333" stroke-miterlimit="8" fill="#FFFFFF" fill-rule="evenodd"/><text font-family="Yu Gothic,Yu Gothic_MSFontService,sans-serif" font-weight="400" font-size="11" transform="translate(529.621 228)">Façade</text><text font-family="Yu Gothic,Yu Gothic_MSFontService,sans-serif" font-weight="400" font-size="11" transform="translate(495.374 241)">CIM</text><text font-family="Yu Gothic,Yu Gothic_MSFontService,sans-serif" font-style="oblique" font-weight="400" font-size="11" transform="translate(515.708 241)">DomainModel</text><text font-family="Yu Gothic,Yu Gothic_MSFontService,sans-serif" font-weight="400" font-size="11" transform="translate(584.708 241)">Lib</text><path d="M238.5 137.5 238.5 558.5 231.5 565.5 224.5 558.5 224.5 137.5Z" stroke="#4472C4" stroke-width="1.33333" stroke-miterlimit="8" fill="#FFFFFF" fill-rule="evenodd"/><path d="M238.5 162.167 332.847 162.167 332.847 162.833 238.5 162.833ZM331.514 158.5 339.514 162.5 331.514 166.5Z" fill="#4472C4"/><text font-family="Yu Gothic,Yu Gothic_MSFontService,sans-serif" font-weight="400" font-size="11" transform="translate(267.165 156)">GetAdaptor</text><path d="M402.5 184.5 402.5 558.5 395.5 565.5 388.5 558.5 388.5 184.5Z" stroke="#4472C4" stroke-width="1.33333" stroke-miterlimit="8" fill="#FFFFFF" fill-rule="evenodd"/><path d="M402.5 230.167 473.728 230.167 473.728 230.833 402.5 230.833ZM472.395 226.5 480.395 230.5 472.395 234.5Z" fill="#4472C4"/><text font-family="Yu Gothic,Yu Gothic_MSFontService,sans-serif" font-weight="400" font-size="11" transform="translate(432.836 223)">Create</text><path d="M555.5 253.5 555.5 558.5 548.5 565.5 541.5 558.5 541.5 253.5Z" stroke="#4472C4" stroke-width="1.33333" stroke-miterlimit="8" fill="#FFFFFF" fill-rule="evenodd"/><path d="M238.5 334.167 382.18 334.167 382.18 334.833 238.5 334.833ZM380.847 330.5 388.847 334.5 380.847 338.5Z" fill="#4472C4"/><path d="M389.323 306.833 386.656 306.833 386.656 306.167 389.323 306.167ZM384.656 306.833 381.989 306.833 381.989 306.167 384.656 306.167ZM379.989 306.833 377.323 306.833 377.323 306.167 379.989 306.167ZM375.323 306.833 372.656 306.833 372.656 306.167 375.323 306.167ZM370.656 306.833 367.989 306.833 367.989 306.167 370.656 306.167ZM365.989 306.833 363.323 306.833 363.323 306.167 365.989 306.167ZM361.323 306.833 358.656 306.833 358.656 306.167 361.323 306.167ZM356.656 306.833 353.989 306.833 353.989 306.167 356.656 306.167ZM351.989 306.833 349.323 306.833 349.323 306.167 351.989 306.167ZM347.323 306.833 344.656 306.833 344.656 306.167 347.323 306.167ZM342.656 306.833 339.989 306.833 339.989 306.167 342.656 306.167ZM337.989 306.833 335.323 306.833 335.323 306.167 337.989 306.167ZM333.323 306.833 330.656 306.833 330.656 306.167 333.323 306.167ZM328.656 306.833 325.989 306.833 325.989 306.167 328.656 306.167ZM323.989 306.833 321.323 306.833 321.323 306.167 323.989 306.167ZM319.323 306.833 316.656 306.833 316.656 306.167 319.323 306.167ZM314.656 306.833 311.989 306.833 311.989 306.167 314.656 306.167ZM309.989 306.833 307.323 306.833 307.323 306.167 309.989 306.167ZM305.323 306.833 302.656 306.833 302.656 306.167 305.323 306.167ZM300.656 306.833 297.989 306.833 297.989 306.167 300.656 306.167ZM295.989 306.833 293.323 306.833 293.323 306.167 295.989 306.167ZM291.323 306.833 288.656 306.833 288.656 306.167 291.323 306.167ZM286.656 306.833 283.989 306.833 283.989 306.167 286.656 306.167ZM281.989 306.833 279.323 306.833 279.323 306.167 281.989 306.167ZM277.323 306.833 274.656 306.833 274.656 306.167 277.323 306.167ZM272.656 306.833 269.989 306.833 269.989 306.167 272.656 306.167ZM267.989 306.833 265.323 306.833 265.323 306.167 267.989 306.167ZM263.323 306.833 260.656 306.833 260.656 306.167 263.323 306.167ZM258.656 306.833 255.989 306.833 255.989 306.167 258.656 306.167ZM253.989 306.833 251.323 306.833 251.323 306.167 253.989 306.167ZM249.323 306.833 246.656 306.833 246.656 306.167 249.323 306.167ZM244.656 306.833 242.161 306.833 242.161 306.167 244.656 306.167ZM249.992 311.455 241.499 306.5 249.992 301.545C250.151 301.453 250.355 301.506 250.448 301.665 250.541 301.824 250.487 302.028 250.328 302.121L242.328 306.788 242.328 306.212 250.328 310.879C250.487 310.971 250.541 311.176 250.448 311.335 250.355 311.494 250.151 311.547 249.992 311.455Z" fill="#4472C4"/><text font-family="Yu Gothic,Yu Gothic_MSFontService,sans-serif" font-weight="400" font-size="11" transform="translate(283.165 172)">GetAdaptor</text><text font-family="Yu Gothic,Yu Gothic_MSFontService,sans-serif" font-weight="400" font-size="11" transform="translate(277.283 329)">Configuration Keys</text><path d="M609.5 270C609.5 265.858 612.858 262.5 617 262.5L736 262.5C740.142 262.5 743.5 265.858 743.5 270L743.5 300C743.5 304.142 740.142 307.5 736 307.5L617 307.5C612.858 307.5 609.5 304.142 609.5 300Z" stroke="#4472C4" stroke-width="1.33333" stroke-miterlimit="8" fill="#FFFFFF" fill-rule="evenodd"/><text font-family="Yu Gothic,Yu Gothic_MSFontService,sans-serif" font-weight="400" font-size="11" transform="translate(639.921 288)">External Entity</text><path d="M555.5 283.167 602.744 283.167 602.744 283.833 555.5 283.833ZM601.411 279.5 609.411 283.5 601.411 287.5Z" fill="#4472C4"/><text font-family="Yu Gothic,Yu Gothic_MSFontService,sans-serif" font-weight="400" font-size="11" transform="translate(571.656 276)">Create</text><path d="M2.53223e-07-0.333333 2.66667-0.333331 2.66667 0.333335-2.53223e-07 0.333333ZM4.66667-0.33333 7.33333-0.333328 7.33333 0.333339 4.66667 0.333337ZM9.33333-0.333326 12-0.333324 12 0.333342 9.33333 0.33334ZM14-0.333323 16.6667-0.333321 16.6667 0.333346 14 0.333344ZM18.6667-0.333319 21.3333-0.333317 21.3333 0.33335 18.6667 0.333347ZM23.3333-0.333316 26-0.333314 26 0.333353 23.3333 0.333351ZM28-0.333312 30.6667-0.33331 30.6667 0.333357 28 0.333355ZM32.6667-0.333309 35.3333-0.333306 35.3333 0.33336 32.6667 0.333358ZM37.3333-0.333305 40-0.333303 40 0.333364 37.3333 0.333362ZM42-0.333301 44.6667-0.333299 44.6667 0.333367 42 0.333365ZM46.6667-0.333298 49.3333-0.333296 49.3333 0.333371 46.6667 0.333369ZM51.3333-0.333294 54-0.333292 54 0.333374 51.3333 0.333372ZM56-0.333291 58.6667-0.333289 58.6667 0.333378 56 0.333376ZM60.6667-0.333287 63.3333-0.333285 63.3333 0.333381 60.6667 0.333379ZM65.3333-0.333284 68-0.333282 68 0.333385 65.3333 0.333383ZM70-0.33328 72.6667-0.333278 72.6667 0.333389 70 0.333387ZM74.6667-0.333277 77.3333-0.333275 77.3333 0.333392 74.6667 0.33339ZM79.3333-0.333273 82-0.333271 82 0.333396 79.3333 0.333394ZM84-0.33327 86.6667-0.333267 86.6667 0.333399 84 0.333397ZM88.6667-0.333266 91.3333-0.333264 91.3333 0.333403 88.6667 0.333401ZM93.3333-0.333262 96-0.33326 96 0.333406 93.3333 0.333404ZM98-0.333259 100.667-0.333257 100.667 0.33341 98 0.333408ZM102.667-0.333255 105.333-0.333253 105.333 0.333413 102.667 0.333411ZM107.333-0.333252 110-0.33325 110 0.333417 107.333 0.333415ZM112-0.333248 114.667-0.333246 114.667 0.33342 112 0.333418ZM116.667-0.333245 119.333-0.333243 119.333 0.333424 116.667 0.333422ZM121.333-0.333241 124-0.333239 124 0.333428 121.333 0.333425ZM126-0.333238 128.667-0.333236 128.667 0.333431 126 0.333429ZM130.667-0.333234 133.333-0.333232 133.333 0.333435 130.667 0.333433ZM135.333-0.333231 137.54-0.333229 137.54 0.333438 135.333 0.333436ZM129.709-4.95449 138.202 0.000104896 129.709 4.95469C129.55 5.04745 129.346 4.99374 129.253 4.83472 129.16 4.6757 129.214 4.4716 129.373 4.37884L137.373-0.287822 137.373 0.288031 129.373-4.37864C129.214-4.4714 129.16-4.67551 129.253-4.83453 129.346-4.99354 129.55-5.04725 129.709-4.95449Z" fill="#4472C4" transform="matrix(-1 0 0 1 540.701 296.5)"/><path d="M683.5 306.5 683.5 558.5 676.5 565.5 669.5 558.5 669.5 306.5Z" stroke="#4472C4" stroke-width="1.33333" stroke-miterlimit="8" fill="#FFFFFF" fill-rule="evenodd"/><path d="M403.5 341.167 535.06 341.167 535.06 341.833 403.5 341.833ZM533.727 337.5 541.727 341.5 533.727 345.5Z" fill="#4472C4"/><text font-family="Yu Gothic,Yu Gothic_MSFontService,sans-serif" font-weight="400" font-size="11" transform="translate(442.439 336)">Configuration Keys</text><path d="M555.5 348.167 663.05 348.167 663.05 348.833 555.5 348.833ZM661.717 344.5 669.717 348.5 661.717 352.5Z" fill="#4472C4"/><text font-family="Yu Gothic,Yu Gothic_MSFontService,sans-serif" font-weight="400" font-size="11" transform="translate(570.656 341)">Configuration Keys</text><path d="M2.53223e-07-0.333333 2.66667-0.333331 2.66667 0.333335-2.53223e-07 0.333333ZM4.66667-0.33333 7.33333-0.333328 7.33333 0.333339 4.66667 0.333337ZM9.33333-0.333326 12-0.333324 12 0.333342 9.33333 0.33334ZM14-0.333323 16.6667-0.333321 16.6667 0.333346 14 0.333344ZM18.6667-0.333319 21.3333-0.333317 21.3333 0.33335 18.6667 0.333347ZM23.3333-0.333316 26-0.333314 26 0.333353 23.3333 0.333351ZM28-0.333312 30.6667-0.33331 30.6667 0.333357 28 0.333355ZM32.6667-0.333309 35.3333-0.333306 35.3333 0.33336 32.6667 0.333358ZM37.3333-0.333305 40-0.333303 40 0.333364 37.3333 0.333362ZM42-0.333301 44.6667-0.333299 44.6667 0.333367 42 0.333365ZM46.6667-0.333298 49.3333-0.333296 49.3333 0.333371 46.6667 0.333369ZM51.3333-0.333294 54-0.333292 54 0.333374 51.3333 0.333372ZM56-0.333291 58.6667-0.333289 58.6667 0.333378 56 0.333376ZM60.6667-0.333287 63.3333-0.333285 63.3333 0.333381 60.6667 0.333379ZM65.3333-0.333284 68-0.333282 68 0.333385 65.3333 0.333383ZM70-0.33328 72.6667-0.333278 72.6667 0.333389 70 0.333387ZM74.6667-0.333277 77.3333-0.333275 77.3333 0.333392 74.6667 0.33339ZM79.3333-0.333273 82-0.333271 82 0.333396 79.3333 0.333394ZM84-0.33327 86.6667-0.333267 86.6667 0.333399 84 0.333397ZM88.6667-0.333266 91.3333-0.333264 91.3333 0.333403 88.6667 0.333401ZM93.3333-0.333262 96-0.33326 96 0.333406 93.3333 0.333404ZM98-0.333259 100.667-0.333257 100.667 0.33341 98 0.333408ZM102.667-0.333255 105.333-0.333253 105.333 0.333413 102.667 0.333411ZM107.333-0.333252 110-0.33325 110 0.333417 107.333 0.333415ZM112-0.333248 114.667-0.333246 114.667 0.33342 112 0.333418ZM116.667-0.333245 119.333-0.333243 119.333 0.333424 116.667 0.333422ZM121.333-0.333241 124-0.333239 124 0.333428 121.333 0.333425ZM126-0.333238 128.667-0.333236 128.667 0.333431 126 0.333429ZM130.667-0.333234 133.333-0.333232 133.333 0.333435 130.667 0.333433ZM135.333-0.333231 137.54-0.333229 137.54 0.333438 135.333 0.333436ZM129.709-4.95449 138.202 0.000104896 129.709 4.95469C129.55 5.04745 129.346 4.99374 129.253 4.83472 129.16 4.6757 129.214 4.4716 129.373 4.37884L137.373-0.287822 137.373 0.288031 129.373-4.37864C129.214-4.4714 129.16-4.67551 129.253-4.83453 129.346-4.99354 129.55-5.04725 129.709-4.95449Z" fill="#4472C4" transform="matrix(-1 0 0 1 541.701 361.5)"/><path d="M2.36741e-07-0.333333 2.66667-0.333331 2.66667 0.333335-2.36741e-07 0.333333ZM4.66667-0.33333 7.33333-0.333328 7.33333 0.333339 4.66667 0.333337ZM9.33333-0.333327 12-0.333325 12 0.333342 9.33333 0.33334ZM14-0.333323 16.6667-0.333321 16.6667 0.333345 14 0.333343ZM18.6667-0.33332 21.3333-0.333318 21.3333 0.333348 18.6667 0.333347ZM23.3333-0.333317 26-0.333315 26 0.333352 23.3333 0.33335ZM28-0.333313 30.6667-0.333312 30.6667 0.333355 28 0.333353ZM32.6667-0.33331 35.3333-0.333308 35.3333 0.333358 32.6667 0.333357ZM37.3333-0.333307 40-0.333305 40 0.333362 37.3333 0.33336ZM42-0.333303 44.6667-0.333302 44.6667 0.333365 42 0.333363ZM46.6667-0.3333 49.3333-0.333298 49.3333 0.333368 46.6667 0.333366ZM51.3333-0.333297 54-0.333295 54 0.333372 51.3333 0.33337ZM56-0.333294 58.6667-0.333292 58.6667 0.333375 56 0.333373ZM60.6667-0.33329 63.3333-0.333288 63.3333 0.333378 60.6667 0.333376ZM65.3333-0.333287 68-0.333285 68 0.333382 65.3333 0.33338ZM70-0.333284 72.6667-0.333282 72.6667 0.333385 70 0.333383ZM74.6667-0.33328 77.3333-0.333278 77.3333 0.333388 74.6667 0.333386ZM79.3333-0.333277 82-0.333275 82 0.333392 79.3333 0.33339ZM84-0.333274 86.6667-0.333272 86.6667 0.333395 84 0.333393ZM88.6667-0.33327 91.3333-0.333268 91.3333 0.333398 88.6667 0.333396ZM93.3333-0.333267 96-0.333265 96 0.333402 93.3333 0.3334ZM98-0.333264 100.667-0.333262 100.667 0.333405 98 0.333403ZM102.667-0.33326 105.333-0.333259 105.333 0.333408 102.667 0.333406ZM107.333-0.333257 110-0.333255 110 0.333411 107.333 0.33341ZM112-0.333254 114.667-0.333252 114.667 0.333415 112 0.333413ZM116.667-0.33325 119.333-0.333249 119.333 0.333418 116.667 0.333416ZM121.333-0.333247 124-0.333245 124 0.333421 121.333 0.33342ZM126-0.333244 128.667-0.333242 128.667 0.333425 126 0.333423ZM130.667-0.333241 133.333-0.333239 133.333 0.333428 130.667 0.333426ZM135.333-0.333237 138-0.333235 138 0.333431 135.333 0.333429ZM140-0.333234 142.667-0.333232 142.667 0.333435 140 0.333433ZM144.667-0.333231 147.162-0.333229 147.162 0.333438 144.667 0.333436ZM139.331-4.95449 147.824 0.000104883 139.331 4.95469C139.172 5.04745 138.967 4.99374 138.875 4.83472 138.782 4.6757 138.836 4.4716 138.995 4.37884L146.995-0.287822 146.995 0.288031 138.995-4.37864C138.836-4.4714 138.782-4.67551 138.875-4.83453 138.967-4.99354 139.172-5.04725 139.331-4.95449Z" fill="#4472C4" transform="matrix(-1 0 0 1 389.323 371.5)"/><path d="M265.5 391.5 320.5 391.5 320.5 441.333 311.333 450.5 265.5 450.5Z" fill="#FFFFFF" fill-rule="evenodd"/><path d="M311.333 450.5 313.167 443.167 320.5 441.333Z" fill="#CDCDCD" fill-rule="evenodd"/><path d="M311.333 450.5 313.167 443.167 320.5 441.333 311.333 450.5 265.5 450.5 265.5 391.5 320.5 391.5 320.5 441.333" stroke="#000000" stroke-width="1.33333" stroke-miterlimit="8" fill="none" fill-rule="evenodd"/><text font-family="Yu Gothic,Yu Gothic_MSFontService,sans-serif" font-weight="400" font-size="11" transform="translate(277.06 413)">Config</text><text font-family="Yu Gothic,Yu Gothic_MSFontService,sans-serif" font-weight="400" font-size="11" transform="translate(283.894 426)">File</text><rect x="232.5" y="404.5" width="15" height="38" stroke="#4472C4" stroke-width="1.33333" stroke-miterlimit="8" fill="#FFFFFF"/><path d="M0 3.75001 0.468762 3.75001 0.468762 11.25 0 11.25ZM0.937496 3.75001 1.87499 3.75001 1.87499 11.25 0.937496 11.25ZM2.34375 3.75001 18.5 3.75001 18.5 0 26 7.5 18.5 15 18.5 11.25 2.34375 11.25Z" stroke="#2F528F" stroke-width="1.33333" stroke-miterlimit="8" stroke-opacity="0.501961" fill="#4472C4" fill-rule="evenodd" fill-opacity="0.501961" transform="matrix(-1 0 0 1 270.5 417.5)"/><path d="M240.5 478.167 384.18 478.167 384.18 478.833 240.5 478.833ZM382.847 474.5 390.847 478.5 382.847 482.5Z" fill="#4472C4"/><text font-family="Yu Gothic,Yu Gothic_MSFontService,sans-serif" font-weight="400" font-size="11" transform="translate(279.367 473)">Initialize</text><path d="M403.5 488.167 534.978 488.167 534.978 488.833 403.5 488.833ZM533.645 484.5 541.645 488.5 533.645 492.5Z" fill="#4472C4"/><text font-family="Yu Gothic,Yu Gothic_MSFontService,sans-serif" font-weight="400" font-size="11" transform="translate(481.787 480)">Initialize</text><path d="M553.5 499.167 662.432 499.167 662.432 499.833 553.5 499.833ZM661.099 495.5 669.099 499.5 661.099 503.5Z" fill="#4472C4"/><text font-family="Yu Gothic,Yu Gothic_MSFontService,sans-serif" font-weight="400" font-size="11" transform="translate(612.77 486)">Initialize</text></g></svg>