<svg width="608" height="494" xmlns="http://www.w3.org/2000/svg" xmlns:xlink="http://www.w3.org/1999/xlink" overflow="hidden"><defs><clipPath id="clip0"><rect x="172" y="40" width="608" height="494"/></clipPath></defs><g clip-path="url(#clip0)" transform="translate(-172 -40)"><rect x="174.5" y="41.5001" width="604" height="492" stroke="#D9D9D9" stroke-width="1.33333" stroke-miterlimit="8" fill="none"/><text font-family="Yu Gothic,Yu Gothic_MSFontService,sans-serif" font-weight="400" font-size="16" transform="translate(255.354 107)">In</text><text font-family="Yu Gothic,Yu Gothic_MSFontService,sans-serif" font-weight="400" font-size="16" transform="translate(273.854 107)">Memory</text><text font-family="Yu Gothic,Yu Gothic_MSFontService,sans-serif" font-weight="400" font-size="16" transform="translate(338.52 107)">の場合</text><text font-family="Yu Gothic,Yu Gothic_MSFontService,sans-serif" font-weight="400" font-size="16" transform="translate(496.871 107)">外部ストレージと組み合わせる場合</text><path d="M255.5 165.667C255.5 162.813 257.813 160.5 260.667 160.5L405.333 160.5C408.187 160.5 410.5 162.813 410.5 165.667L410.5 186.333C410.5 189.187 408.187 191.5 405.333 191.5L260.667 191.5C257.813 191.5 255.5 189.187 255.5 186.333Z" stroke="#4472C4" stroke-width="1.33333" stroke-miterlimit="8" fill="#FFFFFF" fill-rule="evenodd"/><text font-family="Yu Gothic,Yu Gothic_MSFontService,sans-serif" font-weight="400" font-size="13" transform="translate(292.747 180)">振舞ロジック</text><path d="M255.5 209.667C255.5 206.813 257.813 204.5 260.667 204.5L405.333 204.5C408.187 204.5 410.5 206.813 410.5 209.667L410.5 230.333C410.5 233.187 408.187 235.5 405.333 235.5L260.667 235.5C257.813 235.5 255.5 233.187 255.5 230.333Z" stroke="#4472C4" stroke-width="1.33333" stroke-miterlimit="8" fill="#FFFFFF" fill-rule="evenodd"/><text font-family="Yu Gothic,Yu Gothic_MSFontService,sans-serif" font-weight="400" font-size="13" transform="translate(299.414 224)">データ構造</text><rect x="223.5" y="128.5" width="208" height="219" stroke="#000000" stroke-width="1.33333" stroke-miterlimit="8" fill="none"/><text font-family="Yu Gothic,Yu Gothic_MSFontService,sans-serif" font-weight="400" font-size="13" transform="translate(287.06 338)">実行エンジン</text><path d="M255.5 261.625C255.5 265.56 290.198 268.75 333 268.75 375.802 268.75 410.5 265.56 410.5 261.625L410.5 304.375C410.5 308.31 375.802 311.5 333 311.5 290.198 311.5 255.5 308.31 255.5 304.375Z" fill="#FFFFFF" fill-rule="evenodd"/><path d="M255.5 261.625C255.5 257.69 290.198 254.5 333 254.5 375.802 254.5 410.5 257.69 410.5 261.625 410.5 265.56 375.802 268.75 333 268.75 290.198 268.75 255.5 265.56 255.5 261.625Z" fill="#FFFFFF" fill-rule="evenodd"/><path d="M410.5 261.625C410.5 265.56 375.802 268.75 333 268.75 290.198 268.75 255.5 265.56 255.5 261.625 255.5 257.69 290.198 254.5 333 254.5 375.802 254.5 410.5 257.69 410.5 261.625L410.5 304.375C410.5 308.31 375.802 311.5 333 311.5 290.198 311.5 255.5 308.31 255.5 304.375L255.5 261.625" stroke="#ED7D31" stroke-width="1.33333" stroke-miterlimit="8" fill="none" fill-rule="evenodd"/><text font-family="Yu Gothic,Yu Gothic_MSFontService,sans-serif" font-weight="400" font-size="13" transform="translate(266.08 282)">概念インスタンス群の</text><text font-family="Yu Gothic,Yu Gothic_MSFontService,sans-serif" font-weight="400" font-size="13" transform="translate(319.414 298)">状態</text><path d="M307.5 209 333 183.5 358.5 209 345.75 209 345.75 239 358.5 239 333 264.5 307.5 239 320.25 239 320.25 209Z" stroke="#2F528F" stroke-width="1.33333" stroke-miterlimit="8" stroke-opacity="0.501961" fill="#4472C4" fill-rule="evenodd" fill-opacity="0.501961"/><path d="M538.5 165.667C538.5 162.813 540.813 160.5 543.667 160.5L688.333 160.5C691.187 160.5 693.5 162.813 693.5 165.667L693.5 186.333C693.5 189.187 691.187 191.5 688.333 191.5L543.667 191.5C540.813 191.5 538.5 189.187 538.5 186.333Z" stroke="#4472C4" stroke-width="1.33333" stroke-miterlimit="8" fill="#FFFFFF" fill-rule="evenodd"/><text font-family="Yu Gothic,Yu Gothic_MSFontService,sans-serif" font-weight="400" font-size="13" transform="translate(575.47 180)">振舞ロジック</text><path d="M538.5 209.667C538.5 206.813 540.813 204.5 543.667 204.5L688.333 204.5C691.187 204.5 693.5 206.813 693.5 209.667L693.5 230.333C693.5 233.187 691.187 235.5 688.333 235.5L543.667 235.5C540.813 235.5 538.5 233.187 538.5 230.333Z" stroke="#4472C4" stroke-width="1.33333" stroke-miterlimit="8" fill="#FFFFFF" fill-rule="evenodd"/><text font-family="Yu Gothic,Yu Gothic_MSFontService,sans-serif" font-weight="400" font-size="13" transform="translate(582.136 224)">データ構造</text><rect x="516.5" y="128.5" width="207" height="219" stroke="#000000" stroke-width="1.33333" stroke-miterlimit="8" fill="none"/><text font-family="Yu Gothic,Yu Gothic_MSFontService,sans-serif" font-weight="400" font-size="13" transform="translate(579.451 338)">実行エンジン</text><path d="M538.5 261.625C538.5 265.56 573.198 268.75 616 268.75 658.802 268.75 693.5 265.56 693.5 261.625L693.5 304.375C693.5 308.31 658.802 311.5 616 311.5 573.198 311.5 538.5 308.31 538.5 304.375Z" fill="#FFFFFF" fill-rule="evenodd"/><path d="M538.5 261.625C538.5 257.69 573.198 254.5 616 254.5 658.802 254.5 693.5 257.69 693.5 261.625 693.5 265.56 658.802 268.75 616 268.75 573.198 268.75 538.5 265.56 538.5 261.625Z" fill="#FFFFFF" fill-rule="evenodd"/><path d="M693.5 261.625C693.5 265.56 658.802 268.75 616 268.75 573.198 268.75 538.5 265.56 538.5 261.625 538.5 257.69 573.198 254.5 616 254.5 658.802 254.5 693.5 257.69 693.5 261.625L693.5 304.375C693.5 308.31 658.802 311.5 616 311.5 573.198 311.5 538.5 308.31 538.5 304.375L538.5 261.625" stroke="#ED7D31" stroke-width="1.33333" stroke-miterlimit="8" fill="none" fill-rule="evenodd"/><text font-family="Yu Gothic,Yu Gothic_MSFontService,sans-serif" font-weight="400" font-size="13" transform="translate(548.803 282)">概念インスタンス群の</text><text font-family="Yu Gothic,Yu Gothic_MSFontService,sans-serif" font-weight="400" font-size="13" transform="translate(568.803 298)">状態</text><text font-family="Yu Gothic,Yu Gothic_MSFontService,sans-serif" font-weight="400" font-size="13" transform="translate(595.47 298)">キャッシュ</text><path d="M588.5 209 614 183.5 639.5 209 626.75 209 626.75 239 639.5 239 614 264.5 588.5 239 601.25 239 601.25 209Z" stroke="#2F528F" stroke-width="1.33333" stroke-miterlimit="8" stroke-opacity="0.501961" fill="#4472C4" fill-rule="evenodd" fill-opacity="0.501961"/><rect x="516.5" y="416.5" width="207" height="69" stroke="#000000" stroke-width="1.33333" stroke-miterlimit="8" fill="none"/><text font-family="Yu Gothic,Yu Gothic_MSFontService,sans-serif" font-weight="400" font-size="13" transform="translate(572.784 455)">外部ストレージ</text><path d="M588.5 325 614 299.5 639.5 325 626.75 325 626.75 409 639.5 409 614 434.5 588.5 409 601.25 409 601.25 325Z" stroke="#2F528F" stroke-width="1.33333" stroke-miterlimit="8" stroke-opacity="0.501961" fill="#4472C4" fill-rule="evenodd" fill-opacity="0.501961"/><text font-family="Yu Gothic,Yu Gothic_MSFontService,sans-serif" font-weight="400" font-size="13" transform="translate(232.823 377)">参照・更新に気を使う必要なし</text><text font-family="Yu Gothic,Yu Gothic_MSFontService,sans-serif" font-weight="400" font-size="13" transform="translate(644.446 381)">参照・更新で</text><text font-family="Yu Gothic,Yu Gothic_MSFontService,sans-serif" font-weight="400" font-size="13" transform="translate(644.446 397)">同期処理が必要</text><path d="M474 68 474 508.962" stroke="#F2F2F2" stroke-width="2" stroke-miterlimit="8" fill="none" fill-rule="evenodd"/></g></svg>