<svg width="608" height="996" xmlns="http://www.w3.org/2000/svg" xmlns:xlink="http://www.w3.org/1999/xlink" overflow="hidden"><defs><clipPath id="clip0"><rect x="172" y="-8" width="608" height="996"/></clipPath></defs><g clip-path="url(#clip0)" transform="translate(-172 8)"><rect x="174.5" y="-6.50005" width="604" height="994" stroke="#D9D9D9" stroke-width="1.33333" stroke-miterlimit="8" fill="none"/><text font-family="Yu Gothic,Yu Gothic_MSFontService,sans-serif" font-weight="400" font-size="16" transform="translate(381.362 13)">Kae.DomainMode.Csharp</text><rect x="234.5" y="98.5001" width="215" height="51" stroke="#000000" stroke-width="1.33333" stroke-miterlimit="8" fill="#FFFFFF"/><text font-family="Yu Gothic,Yu Gothic_MSFontService,sans-serif" font-weight="400" font-size="13" transform="translate(294.442 119)">&lt;&lt;interface&gt;&gt;</text><text font-family="Yu Gothic,Yu Gothic_MSFontService,sans-serif" font-weight="400" font-size="13" transform="translate(289.275 135)">DomainClassDef</text><rect x="234.5" y="168.5" width="215" height="51" stroke="#000000" stroke-width="1.33333" stroke-miterlimit="8" fill="#FFFFFF"/><text font-family="Yu Gothic,Yu Gothic_MSFontService,sans-serif" font-weight="400" font-size="13" transform="translate(294.439 189)">&lt;&lt;interface&gt;&gt;</text><text font-family="Yu Gothic,Yu Gothic_MSFontService,sans-serif" font-weight="400" font-size="13" transform="translate(247.525 205)">INotifyInstancesStateChanged</text><rect x="234.5" y="290.5" width="215" height="33" stroke="#000000" stroke-width="1.33333" stroke-miterlimit="8" fill="#FFFFFF"/><text font-family="Yu Gothic,Yu Gothic_MSFontService,sans-serif" font-weight="400" font-size="13" transform="translate(297.524 310)">ChangedState</text><rect x="234.5" y="339.5" width="215" height="34" stroke="#000000" stroke-width="1.33333" stroke-miterlimit="8" fill="#FFFFFF"/><text font-family="Yu Gothic,Yu Gothic_MSFontService,sans-serif" font-weight="400" font-size="13" transform="translate(266.691 360)">CInstanceChagendState</text><rect x="234.5" y="388.5" width="215" height="34" stroke="#000000" stroke-width="1.33333" stroke-miterlimit="8" fill="#FFFFFF"/><text font-family="Yu Gothic,Yu Gothic_MSFontService,sans-serif" font-weight="400" font-size="13" transform="translate(279.858 409)">CLinkChangedState</text><rect x="234.5" y="437.5" width="215" height="34" stroke="#000000" stroke-width="1.33333" stroke-miterlimit="8" fill="#FFFFFF"/><text font-family="Yu Gothic,Yu Gothic_MSFontService,sans-serif" font-weight="400" font-size="13" transform="translate(275.608 458)">CEventChangedState</text><rect x="234.5" y="237.5" width="215" height="34" stroke="#000000" stroke-width="1.33333" stroke-miterlimit="8" fill="#FFFFFF"/><text font-family="Yu Gothic,Yu Gothic_MSFontService,sans-serif" font-weight="400" font-size="13" transform="translate(294.191 258)">LinkedInstance</text><rect x="511.5" y="559.5" width="215" height="34" stroke="#000000" stroke-width="1.33333" stroke-miterlimit="8" fill="#FFFFFF"/><text font-family="Yu Gothic,Yu Gothic_MSFontService,sans-serif" font-style="oblique" font-weight="400" font-size="13" transform="translate(559.9 580)">InstanceRepository</text><rect x="511.5" y="606.5" width="215" height="34" stroke="#000000" stroke-width="1.33333" stroke-miterlimit="8" fill="#FFFFFF"/><text font-family="Yu Gothic,Yu Gothic_MSFontService,sans-serif" font-style="oblique" font-weight="400" font-size="13" transform="translate(580.484 627)">TIMWrapper</text><rect x="511.5" y="649.5" width="215" height="34" stroke="#000000" stroke-width="1.33333" stroke-miterlimit="8" fill="#FFFFFF"/><text font-family="Yu Gothic,Yu Gothic_MSFontService,sans-serif" font-weight="400" font-size="13" transform="translate(601.067 670)">Timer</text><rect x="511.5" y="98.5001" width="215" height="34" stroke="#000000" stroke-width="1.33333" stroke-miterlimit="8" fill="#FFFFFF"/><text font-family="Yu Gothic,Yu Gothic_MSFontService,sans-serif" font-style="oblique" font-weight="400" font-size="13" transform="translate(551.567 119)">DomainModelAdaptor</text><rect x="511.5" y="205.5" width="215" height="34" stroke="#000000" stroke-width="1.33333" stroke-miterlimit="8" fill="#FFFFFF"/><text font-family="Yu Gothic,Yu Gothic_MSFontService,sans-serif" font-weight="400" font-size="13" transform="translate(590.65 226)">LinkSpec</text><rect x="511.5" y="254.5" width="215" height="34" stroke="#000000" stroke-width="1.33333" stroke-miterlimit="8" fill="#FFFFFF"/><text font-family="Yu Gothic,Yu Gothic_MSFontService,sans-serif" font-weight="400" font-size="13" transform="translate(573.4 275)">OperationSpec</text><rect x="511.5" y="303.5" width="215" height="34" stroke="#000000" stroke-width="1.33333" stroke-miterlimit="8" fill="#FFFFFF"/><text font-family="Yu Gothic,Yu Gothic_MSFontService,sans-serif" font-weight="400" font-size="13" transform="translate(583.65 324)">ParamSpec</text><rect x="511.5" y="352.5" width="215" height="34" stroke="#000000" stroke-width="1.33333" stroke-miterlimit="8" fill="#FFFFFF"/><text font-family="Yu Gothic,Yu Gothic_MSFontService,sans-serif" font-weight="400" font-size="13" transform="translate(589.317 373)">PropSpec</text><rect x="511.5" y="152.5" width="215" height="34" stroke="#000000" stroke-width="1.33333" stroke-miterlimit="8" fill="#FFFFFF"/><text font-family="Yu Gothic,Yu Gothic_MSFontService,sans-serif" font-weight="400" font-size="13" transform="translate(586.817 173)">ClassSpec</text><rect x="511.5" y="402.5" width="215" height="34" stroke="#000000" stroke-width="1.33333" stroke-miterlimit="8" fill="#FFFFFF"/><text font-family="Yu Gothic,Yu Gothic_MSFontService,sans-serif" font-weight="400" font-size="13" transform="translate(551.9 423)">RequestingParameter</text><rect x="222.5" y="559.5" width="215" height="51" stroke="#000000" stroke-width="1.33333" stroke-miterlimit="8" fill="#FFFFFF"/><text font-family="Yu Gothic,Yu Gothic_MSFontService,sans-serif" font-weight="400" font-size="13" transform="translate(283.01 581)">&lt;&lt;interface&gt;&gt;</text><text font-family="Yu Gothic,Yu Gothic_MSFontService,sans-serif" font-weight="400" font-size="13" transform="translate(254.43 597)">IExternalStorageAdaptor</text><rect x="222.5" y="625.5" width="215" height="51" stroke="#000000" stroke-width="1.33333" stroke-miterlimit="8" fill="#FFFFFF"/><text font-family="Yu Gothic,Yu Gothic_MSFontService,sans-serif" font-weight="400" font-size="13" transform="translate(283.013 646)">&lt;&lt;interface&gt;&gt;</text><text font-family="Yu Gothic,Yu Gothic_MSFontService,sans-serif" font-weight="400" font-size="13" transform="translate(247.513 662)">IExternalStorageAdaptable</text><rect x="222.5" y="759.5" width="215" height="51" stroke="#000000" stroke-width="1.33333" stroke-miterlimit="8" fill="#FFFFFF"/><text font-family="Yu Gothic,Yu Gothic_MSFontService,sans-serif" font-weight="400" font-size="13" transform="translate(283.013 780)">&lt;&lt;interface&gt;&gt;</text><text font-family="Yu Gothic,Yu Gothic_MSFontService,sans-serif" font-weight="400" font-size="13" transform="translate(275.68 796)">ExternalEntityDef</text><rect x="222.5" y="828.5" width="215" height="51" stroke="#000000" stroke-width="1.33333" stroke-miterlimit="8" fill="#FFFFFF"/><text font-family="Yu Gothic,Yu Gothic_MSFontService,sans-serif" font-weight="400" font-size="13" transform="translate(283.013 850)">&lt;&lt;interface&gt;&gt;</text><text font-family="Yu Gothic,Yu Gothic_MSFontService,sans-serif" font-weight="400" font-size="13" transform="translate(290.68 866)">STRWrapper</text><rect x="222.5" y="901.5" width="215" height="51" stroke="#000000" stroke-width="1.33333" stroke-miterlimit="8" fill="#FFFFFF"/><text font-family="Yu Gothic,Yu Gothic_MSFontService,sans-serif" font-weight="400" font-size="13" transform="translate(283.013 922)">&lt;&lt;interface&gt;&gt;</text><text font-family="Yu Gothic,Yu Gothic_MSFontService,sans-serif" font-weight="400" font-size="13" transform="translate(289.013 938)">RNDWrapper</text><path d="M205.5 82.4454C205.5 67.5639 217.564 55.5001 232.445 55.5001L439.555 55.5001C454.436 55.5001 466.5 67.5639 466.5 82.4454L466.5 467.555C466.5 482.436 454.436 494.5 439.555 494.5L232.445 494.5C217.564 494.5 205.5 482.436 205.5 467.555Z" stroke="#5B9BD5" stroke-width="1.33333" stroke-miterlimit="8" fill="none" fill-rule="evenodd"/><text font-family="Yu Gothic,Yu Gothic_MSFontService,sans-serif" font-weight="400" font-size="16" transform="translate(274.477 82)">Framework.Core</text><path d="M488.5 80.4456C488.5 65.564 500.564 53.5001 515.446 53.5001L722.555 53.5001C737.436 53.5001 749.5 65.564 749.5 80.4456L749.5 441.555C749.5 456.436 737.436 468.5 722.555 468.5L515.446 468.5C500.564 468.5 488.5 456.436 488.5 441.555Z" stroke="#5B9BD5" stroke-width="1.33333" stroke-miterlimit="8" fill="none" fill-rule="evenodd"/><text font-family="Yu Gothic,Yu Gothic_MSFontService,sans-serif" font-weight="400" font-size="16" transform="translate(546.067 81)">Framework.Adaptor</text><path d="M488.5 541.464C488.5 531.543 496.543 523.5 506.464 523.5L731.536 523.5C741.457 523.5 749.5 531.543 749.5 541.464L749.5 679.536C749.5 689.457 741.457 697.5 731.536 697.5L506.464 697.5C496.543 697.5 488.5 689.457 488.5 679.536Z" stroke="#5B9BD5" stroke-width="1.33333" stroke-miterlimit="8" fill="none" fill-rule="evenodd"/><text font-family="Yu Gothic,Yu Gothic_MSFontService,sans-serif" font-weight="400" font-size="16" transform="translate(577.4 548)">Framework</text><path d="M205.5 541.464C205.5 531.543 213.543 523.5 223.464 523.5L448.536 523.5C458.457 523.5 466.5 531.543 466.5 541.464L466.5 679.536C466.5 689.457 458.457 697.5 448.536 697.5L223.464 697.5C213.543 697.5 205.5 689.457 205.5 679.536Z" stroke="#5B9BD5" stroke-width="1.33333" stroke-miterlimit="8" fill="none" fill-rule="evenodd"/><text font-family="Yu Gothic,Yu Gothic_MSFontService,sans-serif" font-weight="400" font-size="13" transform="translate(223.977 545)">Framework.Adaptor.ExternalStorag</text><text font-family="Yu Gothic,Yu Gothic_MSFontService,sans-serif" font-weight="400" font-size="13" transform="translate(439.31 545)">e</text><path d="M205.5 749.865C205.5 736.408 216.408 725.5 229.865 725.5L442.135 725.5C455.592 725.5 466.5 736.408 466.5 749.865L466.5 937.135C466.5 950.592 455.592 961.5 442.135 961.5L229.865 961.5C216.408 961.5 205.5 950.592 205.5 937.135Z" stroke="#5B9BD5" stroke-width="1.33333" stroke-miterlimit="8" fill="none" fill-rule="evenodd"/><text font-family="Yu Gothic,Yu Gothic_MSFontService,sans-serif" font-weight="400" font-size="13" transform="translate(256.144 749)">Framework.ExternalEntity</text><path d="M0-0.333333 11.6264-0.333333 11.6264 13.3913 11.293 13.058 21.926 13.058 21.926 13.7246 10.9597 13.7246 10.9597 0 11.293 0.333333 0 0.333333ZM14.094 8.43669 22.5876 13.3913 14.094 18.3459C13.935 18.4386 13.7309 18.3849 13.6381 18.2259 13.5454 18.0669 13.5991 17.8628 13.7581 17.77L21.7581 13.1034 21.7581 13.6792 13.7581 9.01255C13.5991 8.91979 13.5454 8.71568 13.6381 8.55666 13.7309 8.39764 13.935 8.34393 14.094 8.43669Z" fill="#4472C4" transform="matrix(-1 1.22465e-16 1.22465e-16 1 489.086 261.5)"/><path d="M0.333333-6.39553e-07 0.333437 54.0591-0.33323 54.0591-0.333333 6.39553e-07ZM4.95468 46.2268 0.000105044 54.7204-4.9545 46.2268C-5.04727 46.0678-4.99355 45.8637-4.83454 45.7709-4.67552 45.6782-4.47141 45.7319-4.37865 45.8909L0.28803 53.8909-0.287823 53.8909 4.37883 45.8909C4.47159 45.7319 4.67569 45.6781 4.83471 45.7709 4.99373 45.8637 5.04744 46.0678 4.95468 46.2268Z" fill="#4472C4" transform="matrix(1 0 0 -1 619.5 523.219)"/><path d="M546.796 524.432 466.87 472.141 467.235 471.583 547.161 523.874ZM470.894 480.295 466.499 471.499 476.319 472.003C476.503 472.013 476.644 472.169 476.635 472.353 476.625 472.537 476.469 472.679 476.285 472.669L467.035 472.194 467.351 471.712 471.49 479.997C471.572 480.162 471.506 480.362 471.341 480.445 471.176 480.527 470.976 480.46 470.894 480.295Z" fill="#4472C4"/><path d="M0.333333-1.19916e-06 0.333436 28.5235-0.333231 28.5235-0.333333 1.19916e-06ZM4.95467 20.6915 0.000104986 29.1851-4.95452 20.6915C-5.04728 20.5325-4.99357 20.3284-4.83455 20.2356-4.67553 20.1428-4.47143 20.1966-4.37867 20.3556L0.288028 28.3556-0.287824 28.3556 4.37881 20.3555C4.47157 20.1965 4.67568 20.1428 4.8347 20.2356 4.99371 20.3283 5.04743 20.5324 4.95467 20.6915Z" fill="#4472C4" transform="matrix(1 0 0 -1 335.5 523.684)"/><path d="M1.54944e-06-0.333333 21.9261-0.333231 21.9261 0.333435-1.54944e-06 0.333333ZM14.094-4.95453 22.5876 0.000104978 14.094 4.95466C13.935 5.04742 13.7308 4.9937 13.6381 4.83469 13.5453 4.67567 13.599 4.47156 13.7581 4.3788L21.7581-0.287825 21.7581 0.288027 13.7581-4.37868C13.5991-4.47144 13.5454-4.67554 13.6381-4.83456 13.7309-4.99358 13.935-5.04729 14.094-4.95453Z" fill="#4472C4" transform="matrix(-1 0 0 1 489.086 610.5)"/><path d="M619.88 697.5 619.88 843.661 467.161 843.661 467.161 842.994 619.546 842.994 619.213 843.328 619.213 697.5ZM474.992 848.282 466.499 843.328 474.992 838.373C475.151 838.28 475.355 838.334 475.448 838.493 475.541 838.652 475.487 838.856 475.328 838.949L467.328 843.616 467.328 843.04 475.328 847.707C475.487 847.799 475.541 848.003 475.448 848.162 475.355 848.321 475.151 848.375 474.992 848.282Z" fill="#4472C4"/></g></svg>