<svg width="608" height="711" xmlns="http://www.w3.org/2000/svg" xmlns:xlink="http://www.w3.org/1999/xlink" overflow="hidden"><defs><clipPath id="clip0"><rect x="188" y="142" width="608" height="711"/></clipPath></defs><g clip-path="url(#clip0)" transform="translate(-188 -142)"><rect x="190.5" y="144.5" width="604" height="708" stroke="#D9D9D9" stroke-width="1.33333" stroke-miterlimit="8" fill="none"/><rect x="252.5" y="220.5" width="206" height="101" stroke="#000000" stroke-width="1.33333" stroke-miterlimit="8" fill="#FFFFFF"/><text font-family="Yu Gothic,Yu Gothic_MSFontService,sans-serif" font-weight="400" font-size="13" transform="translate(308.116 237)">&lt;&lt;interface&gt;&gt;</text><text font-family="Yu Gothic,Yu Gothic_MSFontService,sans-serif" font-weight="400" font-size="13" transform="translate(300.783 253)">ExternalEntityDef</text><text font-family="Yu Gothic,Yu Gothic_MSFontService,sans-serif" font-style="oblique" font-weight="400" font-size="13" transform="translate(261.116 269)">EEKey</text><text font-family="Yu Gothic,Yu Gothic_MSFontService,sans-serif" font-style="oblique" font-weight="400" font-size="13" transform="translate(261.116 285)">ConfigurationKeys</text><text font-family="Yu Gothic,Yu Gothic_MSFontService,sans-serif" font-style="oblique" font-weight="400" font-size="13" transform="translate(261.116 301)">Initialize()</text><path d="M344 338 354 320 364 338Z" stroke="#000000" stroke-width="2" stroke-miterlimit="8" fill="#FFFFFF" fill-rule="evenodd"/><rect x="251" y="378" width="206" height="142" stroke="#000000" stroke-width="2" stroke-miterlimit="8" fill="#FFFFFF"/><text font-family="Yu Gothic,Yu Gothic_MSFontService,sans-serif" font-weight="400" font-size="13" transform="translate(308.606 395)">&lt;&lt;Abstract&gt;&gt;</text><text font-family="Yu Gothic,Yu Gothic_MSFontService,sans-serif" font-weight="400" font-size="13" transform="translate(316.353 411)">AIHWrapper</text><text font-family="Yu Gothic,Yu Gothic_MSFontService,sans-serif" font-weight="400" font-size="13" transform="translate(260.106 427)">EEKey</text><text font-family="Yu Gothic,Yu Gothic_MSFontService,sans-serif" font-weight="400" font-size="13" transform="translate(260.106 443)">ConfigurationKeys</text><text font-family="Yu Gothic,Yu Gothic_MSFontService,sans-serif" font-weight="400" font-size="13" transform="translate(260.106 459)">Initialize()</text><text font-family="Yu Gothic,Yu Gothic_MSFontService,sans-serif" font-style="oblique" font-weight="400" font-size="13" transform="translate(260.106 475)">InitializeImpl</text><text font-family="Yu Gothic,Yu Gothic_MSFontService,sans-serif" font-weight="400" font-size="13" transform="translate(337.939 475)">(</text><text font-family="Yu Gothic,Yu Gothic_MSFontService,sans-serif" font-weight="400" font-size="13" transform="translate(343.106 475)">)</text><text font-family="Yu Gothic,Yu Gothic_MSFontService,sans-serif" font-style="oblique" font-weight="700" font-size="13" transform="translate(260.106 491)">UpdateProperty</text><text font-family="Yu Gothic,Yu Gothic_MSFontService,sans-serif" font-weight="400" font-size="13" transform="translate(362.939 491)">()</text><text font-family="Yu Gothic,Yu Gothic_MSFontService,sans-serif" font-style="oblique" font-weight="700" font-size="13" transform="translate(260.106 507)">InvokeOperation</text><text font-family="Yu Gothic,Yu Gothic_MSFontService,sans-serif" font-weight="400" font-size="13" transform="translate(367.106 507)">(</text><text font-family="Yu Gothic,Yu Gothic_MSFontService,sans-serif" font-weight="400" font-size="13" transform="translate(372.273 507)">)</text><path d="M354 338 354 378.338" stroke="#000000" stroke-width="2" stroke-miterlimit="8" stroke-dasharray="2 2" fill="none" fill-rule="evenodd"/><rect x="251" y="583" width="207" height="85" stroke="#000000" stroke-width="2" stroke-miterlimit="8" fill="#FFFFFF"/><text font-family="Yu Gothic,Yu Gothic_MSFontService,sans-serif" font-weight="400" font-size="13" transform="translate(305.218 600)">AzureIoTHubIml</text><text font-family="Yu Gothic,Yu Gothic_MSFontService,sans-serif" font-weight="400" font-size="13" transform="translate(260.552 616)">InitializeImpl</text><text font-family="Yu Gothic,Yu Gothic_MSFontService,sans-serif" font-weight="400" font-size="13" transform="translate(338.385 616)">()</text><text font-family="Yu Gothic,Yu Gothic_MSFontService,sans-serif" font-weight="400" font-size="13" transform="translate(260.552 632)">UpdateProperty</text><text font-family="Yu Gothic,Yu Gothic_MSFontService,sans-serif" font-weight="400" font-size="13" transform="translate(357.718 632)">()</text><text font-family="Yu Gothic,Yu Gothic_MSFontService,sans-serif" font-weight="400" font-size="13" transform="translate(260.552 648)">InvokeOperation</text><text font-family="Yu Gothic,Yu Gothic_MSFontService,sans-serif" font-weight="400" font-size="13" transform="translate(361.218 648)">(</text><text font-family="Yu Gothic,Yu Gothic_MSFontService,sans-serif" font-weight="400" font-size="13" transform="translate(366.385 648)">)</text><path d="M345 539 355 521 365 539Z" stroke="#000000" stroke-width="2" stroke-miterlimit="8" fill="#FFFFFF" fill-rule="evenodd"/><path d="M0 0 0.277165 44.0884" stroke="#000000" stroke-width="2" stroke-miterlimit="8" fill="none" fill-rule="evenodd" transform="matrix(-1 0 0 1 355.277 539)"/><rect x="556.5" y="259.5" width="162" height="101" stroke="#000000" stroke-width="1.33333" stroke-miterlimit="8" fill="#FFFFFF"/><text font-family="Yu Gothic,Yu Gothic_MSFontService,sans-serif" font-weight="400" font-size="13" transform="translate(591.486 276)">&lt;&lt;Abstract&gt;&gt;</text><text font-family="Yu Gothic,Yu Gothic_MSFontService,sans-serif" font-weight="400" font-size="13" transform="translate(577.652 292)">InstanceRepository</text><text font-family="Yu Gothic,Yu Gothic_MSFontService,sans-serif" font-weight="400" font-size="13" transform="translate(565.239 308)">Add()</text><text font-family="Yu Gothic,Yu Gothic_MSFontService,sans-serif" font-weight="400" font-size="13" transform="translate(565.239 324)">GetExternalEntity</text><text font-family="Yu Gothic,Yu Gothic_MSFontService,sans-serif" font-weight="400" font-size="13" transform="translate(672.906 324)">()</text><text font-family="Yu Gothic,Yu Gothic_MSFontService,sans-serif" font-weight="400" font-size="13" transform="translate(565.239 340)">GetExternalEntities</text><text font-family="Yu Gothic,Yu Gothic_MSFontService,sans-serif" font-weight="400" font-size="13" transform="translate(684.239 340)">()</text><path d="M719.5 305.5 731.5 299.5 743.5 305.5 731.5 311.5Z" stroke="#000000" stroke-width="1.33333" stroke-miterlimit="8" fill="#FFFFFF" fill-rule="evenodd"/><path d="M744.106 304.861 768.106 304.861 767.773 305.195 767.773 196.5 768.106 196.834 355.5 196.834 355.833 196.5 355.833 219.84 355.167 219.84 355.167 196.167 768.439 196.167 768.439 305.528 744.106 305.528ZM360.455 212.008 355.5 220.502 350.546 212.008C350.453 211.849 350.506 211.645 350.665 211.552 350.824 211.459 351.029 211.513 351.121 211.672L355.788 219.672 355.212 219.672 359.879 211.672C359.972 211.513 360.176 211.459 360.335 211.552 360.494 211.645 360.547 211.849 360.455 212.008Z"/><text font-family="Yu Gothic,Yu Gothic_MSFontService,sans-serif" font-weight="400" font-size="11" transform="translate(339.017 212)">*</text><rect x="556.5" y="409.5" width="162" height="80" stroke="#000000" stroke-width="1.33333" stroke-miterlimit="8" fill="#FFFFFF"/><text font-family="Yu Gothic,Yu Gothic_MSFontService,sans-serif" font-weight="400" font-size="13" transform="translate(589.819 426)">&lt;&lt;Interface&gt;&gt;</text><text font-family="Yu Gothic,Yu Gothic_MSFontService,sans-serif" font-weight="400" font-size="13" transform="translate(584.819 442)">DomainClassDef</text><text font-family="Yu Gothic,Yu Gothic_MSFontService,sans-serif" font-style="oblique" font-weight="400" font-size="11" transform="translate(565.239 456)">GetIdForExternalStorage</text><text font-family="Yu Gothic,Yu Gothic_MSFontService,sans-serif" font-style="oblique" font-weight="400" font-size="11" transform="translate(687.073 456)">(</text><text font-family="Yu Gothic,Yu Gothic_MSFontService,sans-serif" font-style="oblique" font-weight="400" font-size="11" transform="translate(691.239 456)">)</text><rect x="556.5" y="564.5" width="162" height="58" stroke="#000000" stroke-width="1.33333" stroke-miterlimit="8" fill="#FFFFFF"/><text font-family="Yu Gothic,Yu Gothic_MSFontService,sans-serif" font-weight="400" font-size="13" transform="translate(589.819 581)">&lt;&lt;Interface&gt;&gt;</text><text font-family="Yu Gothic,Yu Gothic_MSFontService,sans-serif" font-weight="400" font-size="13" transform="translate(582.239 597)">DomainClass</text><text font-family="Yu Gothic,Yu Gothic_MSFontService,sans-serif" font-style="oblique" font-weight="700" font-size="13" transform="translate(663.739 597)">CKL</text><path d="M627.5 507.5 637.5 489.5 647.5 507.5Z" stroke="#000000" stroke-width="1.33333" stroke-miterlimit="8" fill="#FFFFFF" fill-rule="evenodd"/><path d="M0 0 0.361575 57.0925" stroke="#000000" stroke-width="0.666667" stroke-miterlimit="8" fill="none" fill-rule="evenodd" transform="matrix(-1 0 0 1 637.862 507.5)"/><rect x="556.5" y="663.5" width="162" height="59" stroke="#000000" stroke-width="1.33333" stroke-miterlimit="8" fill="#FFFFFF"/><text font-family="Yu Gothic,Yu Gothic_MSFontService,sans-serif" font-weight="400" font-size="13" transform="translate(566.819 680)">DomainClass</text><text font-family="Yu Gothic,Yu Gothic_MSFontService,sans-serif" font-style="oblique" font-weight="700" font-size="13" transform="translate(648.319 680)">CKL</text><text font-family="Yu Gothic,Yu Gothic_MSFontService,sans-serif" font-weight="400" font-size="13" transform="translate(675.652 680)">Base</text><path d="M626.5 641.5 637 623.5 647.5 641.5Z" stroke="#000000" stroke-width="1.33333" stroke-miterlimit="8" fill="#FFFFFF" fill-rule="evenodd"/><path d="M637.5 641.5 637.5 664.254" stroke="#000000" stroke-width="0.666667" stroke-miterlimit="8" fill="none" fill-rule="evenodd"/><path d="M0-0.333333 24.3333-0.333333 24.3333 345.553 1.99332 345.553 1.99332 344.886 24 344.886 23.6667 345.219 23.6667 0 24 0.333333 0 0.333333ZM9.82538 350.174 1.33179 345.219 9.82538 340.265C9.98439 340.172 10.1885 340.226 10.2813 340.385 10.374 340.544 10.3203 340.748 10.1613 340.84L2.16129 345.507 2.16129 344.931 10.1613 349.598C10.3203 349.691 10.374 349.895 10.2813 350.054 10.1885 350.213 9.98439 350.267 9.82538 350.174Z" transform="matrix(1 0 0 -1 718.5 692.719)"/><path d="M528.5 347.5 540.5 341.5 552.5 347.5 540.5 353.5Z" stroke="#000000" stroke-width="1.33333" stroke-miterlimit="8" fill="#FFFFFF" fill-rule="evenodd"/><path d="M528.5 347.833 504.5 347.833 504.833 347.5 504.833 381.373 504.5 381.04 637.565 381.04 637.565 408.708 636.899 408.708 636.899 381.373 637.232 381.706 504.166 381.706 504.166 347.167 528.5 347.167ZM642.187 400.876 637.232 409.37 632.277 400.876C632.185 400.717 632.238 400.513 632.397 400.42 632.556 400.328 632.76 400.381 632.853 400.54L637.52 408.54 636.944 408.54 641.611 400.54C641.703 400.381 641.908 400.328 642.067 400.42 642.226 400.513 642.279 400.717 642.187 400.876Z"/><text font-family="Yu Gothic,Yu Gothic_MSFontService,sans-serif" font-weight="400" font-size="11" transform="translate(650.461 406)">*</text><rect x="556.5" y="750.5" width="162" height="58" stroke="#000000" stroke-width="1.33333" stroke-miterlimit="8" fill="#FFFFFF"/><text font-family="Yu Gothic,Yu Gothic_MSFontService,sans-serif" font-weight="400" font-size="13" transform="translate(570.239 767)">CIM</text><text font-family="Yu Gothic,Yu Gothic_MSFontService,sans-serif" font-style="oblique" font-weight="700" font-size="13" transform="translate(595.572 767)">DomainName</text><text font-family="Yu Gothic,Yu Gothic_MSFontService,sans-serif" font-weight="400" font-size="13" transform="translate(683.906 767)">Lib</text><path d="M0-0.333333 24.3334-0.333333 24.3334 431.963 0.660025 431.963 0.660025 431.297 24.0001 431.297 23.6668 431.63 23.6668 0 24.0001 0.333333 0 0.333333ZM8.49215 436.585-0.00143998 431.63 8.49215 426.676C8.65117 426.583 8.85527 426.636 8.94803 426.796 9.04079 426.954 8.98708 427.159 8.82806 427.251L0.828062 431.918 0.828062 431.342 8.82806 436.009C8.98708 436.102 9.04079 436.306 8.94803 436.465 8.85527 436.624 8.65117 436.677 8.49215 436.585Z" transform="matrix(1 0 0 -1 718.5 779.13)"/><path d="M527.5 552.094C527.5 542.929 534.929 535.5 544.094 535.5L735.906 535.5C745.071 535.5 752.5 542.929 752.5 552.094L752.5 803.906C752.5 813.071 745.071 820.5 735.906 820.5L544.094 820.5C534.929 820.5 527.5 813.071 527.5 803.906Z" stroke="#2F528F" stroke-width="1.33333" stroke-miterlimit="8" stroke-dasharray="5.33333 4" fill="none" fill-rule="evenodd"/><text font-family="Yu Gothic,Yu Gothic_MSFontService,sans-serif" font-weight="400" font-size="13" transform="translate(522.132 741)">概念モデルから自動生成されるコード</text><text font-family="Yu Gothic,Yu Gothic_MSFontService,sans-serif" font-weight="400" font-size="11" transform="translate(372.311 214)">externalEntities</text><path d="M216.5 365.855C216.5 354.613 225.613 345.5 236.855 345.5L472.145 345.5C483.387 345.5 492.5 354.613 492.5 365.855L492.5 739.145C492.5 750.387 483.387 759.5 472.145 759.5L236.855 759.5C225.613 759.5 216.5 750.387 216.5 739.145Z" stroke="#2F528F" stroke-width="1.33333" stroke-miterlimit="8" stroke-dasharray="5.33333 4" fill="none" fill-rule="evenodd"/><text font-family="Yu Gothic,Yu Gothic_MSFontService,sans-serif" font-weight="400" font-size="13" transform="translate(271.811 728)">Kae.DomainModel.Csharp</text><text font-family="Yu Gothic,Yu Gothic_MSFontService,sans-serif" font-weight="400" font-size="13" transform="translate(432.811 728)">.</text><text font-family="Yu Gothic,Yu Gothic_MSFontService,sans-serif" font-weight="400" font-size="13" transform="translate(263.811 744)">ExternalEntities.AzureIoTHub</text></g></svg>