<svg width="608" height="711" xmlns="http://www.w3.org/2000/svg" xmlns:xlink="http://www.w3.org/1999/xlink" overflow="hidden"><defs><clipPath id="clip0"><rect x="188" y="142" width="608" height="711"/></clipPath></defs><g clip-path="url(#clip0)" transform="translate(-188 -142)"><rect x="190.5" y="144.5" width="604" height="708" stroke="#D9D9D9" stroke-width="1.33333" stroke-miterlimit="8" fill="none"/><rect x="224.5" y="215.5" width="207" height="101" stroke="#000000" stroke-width="1.33333" stroke-miterlimit="8" fill="#FFFFFF"/><text font-family="Yu Gothic,Yu Gothic_MSFontService,sans-serif" font-weight="400" font-size="13" transform="translate(280.919 232)">&lt;&lt;interface&gt;&gt;</text><text font-family="Yu Gothic,Yu Gothic_MSFontService,sans-serif" font-weight="400" font-size="13" transform="translate(273.586 248)">ExternalEntityDef</text><text font-family="Yu Gothic,Yu Gothic_MSFontService,sans-serif" font-style="oblique" font-weight="400" font-size="13" transform="translate(233.919 264)">EEKey</text><text font-family="Yu Gothic,Yu Gothic_MSFontService,sans-serif" font-style="oblique" font-weight="400" font-size="13" transform="translate(233.919 280)">ConfigurationKeys</text><text font-family="Yu Gothic,Yu Gothic_MSFontService,sans-serif" font-style="oblique" font-weight="400" font-size="13" transform="translate(233.919 296)">Initialize()</text><path d="M316.5 333.5 327 315.5 337.5 333.5Z" stroke="#000000" stroke-width="1.33333" stroke-miterlimit="8" fill="#FFFFFF" fill-rule="evenodd"/><rect x="223.5" y="381.5" width="207" height="134" stroke="#000000" stroke-width="1.33333" stroke-miterlimit="8" fill="#FFFFFF"/><text font-family="Yu Gothic,Yu Gothic_MSFontService,sans-serif" font-weight="400" font-size="13" transform="translate(281.409 398)">&lt;&lt;Abstract&gt;&gt;</text><text font-family="Yu Gothic,Yu Gothic_MSFontService,sans-serif" font-style="oblique" font-weight="700" font-size="13" transform="translate(279.489 414)">EEKey</text><text font-family="Yu Gothic,Yu Gothic_MSFontService,sans-serif" font-weight="400" font-size="13" transform="translate(321.322 414)">Wrapper</text><text font-family="Yu Gothic,Yu Gothic_MSFontService,sans-serif" font-weight="400" font-size="13" transform="translate(232.909 430)">EEKey</text><text font-family="Yu Gothic,Yu Gothic_MSFontService,sans-serif" font-weight="400" font-size="13" transform="translate(232.909 446)">ConfigurationKeys</text><text font-family="Yu Gothic,Yu Gothic_MSFontService,sans-serif" font-weight="400" font-size="13" transform="translate(232.909 462)">Initialize()</text><text font-family="Yu Gothic,Yu Gothic_MSFontService,sans-serif" font-style="oblique" font-weight="400" font-size="13" transform="translate(232.909 478)">InitializeImpl</text><text font-family="Yu Gothic,Yu Gothic_MSFontService,sans-serif" font-weight="400" font-size="13" transform="translate(310.742 478)">(</text><text font-family="Yu Gothic,Yu Gothic_MSFontService,sans-serif" font-weight="400" font-size="13" transform="translate(315.909 478)">)</text><text font-family="Yu Gothic,Yu Gothic_MSFontService,sans-serif" font-style="oblique" font-weight="400" font-size="13" transform="translate(232.909 494)">BridgeOperation</text><text font-family="Yu Gothic,Yu Gothic_MSFontService,sans-serif" font-weight="400" font-size="13" transform="translate(333.409 494)">()</text><path d="M327.5 333.5 327.5 381.524" stroke="#000000" stroke-width="0.666667" stroke-miterlimit="8" stroke-dasharray="0.666667 0.666667" fill="none" fill-rule="evenodd"/><rect x="224.5" y="578.5" width="207" height="85" stroke="#000000" stroke-width="1.33333" stroke-miterlimit="8" fill="#FFFFFF"/><text font-family="Yu Gothic,Yu Gothic_MSFontService,sans-serif" font-weight="400" font-size="13" transform="translate(268.268 595)">&lt;&lt;Hand Coding&gt;&gt;</text><text font-family="Yu Gothic,Yu Gothic_MSFontService,sans-serif" font-style="oblique" font-weight="700" font-size="13" transform="translate(270.854 611)">EEKey</text><text font-family="Yu Gothic,Yu Gothic_MSFontService,sans-serif" font-weight="400" font-size="13" transform="translate(312.688 611)">WrapperIml</text><text font-family="Yu Gothic,Yu Gothic_MSFontService,sans-serif" font-weight="400" font-size="13" transform="translate(233.354 627)">InitializeImpl</text><text font-family="Yu Gothic,Yu Gothic_MSFontService,sans-serif" font-weight="400" font-size="13" transform="translate(311.188 627)">()</text><text font-family="Yu Gothic,Yu Gothic_MSFontService,sans-serif" font-weight="400" font-size="13" transform="translate(233.354 643)">BridgeOperation</text><text font-family="Yu Gothic,Yu Gothic_MSFontService,sans-serif" font-weight="400" font-size="13" transform="translate(333.854 643)">(</text><text font-family="Yu Gothic,Yu Gothic_MSFontService,sans-serif" font-weight="400" font-size="13" transform="translate(339.021 643)">)</text><path d="M317.5 534.5 328 516.5 338.5 534.5Z" stroke="#000000" stroke-width="1.33333" stroke-miterlimit="8" fill="#FFFFFF" fill-rule="evenodd"/><path d="M0 0 0.277165 44.0884" stroke="#000000" stroke-width="0.666667" stroke-miterlimit="8" fill="none" fill-rule="evenodd" transform="matrix(-1 0 0 1 327.777 534.5)"/><rect x="556.5" y="259.5" width="162" height="101" stroke="#000000" stroke-width="1.33333" stroke-miterlimit="8" fill="#FFFFFF"/><text font-family="Yu Gothic,Yu Gothic_MSFontService,sans-serif" font-weight="400" font-size="13" transform="translate(591.486 276)">&lt;&lt;Abstract&gt;&gt;</text><text font-family="Yu Gothic,Yu Gothic_MSFontService,sans-serif" font-weight="400" font-size="13" transform="translate(577.652 292)">InstanceRepository</text><text font-family="Yu Gothic,Yu Gothic_MSFontService,sans-serif" font-weight="400" font-size="13" transform="translate(565.239 308)">Add()</text><text font-family="Yu Gothic,Yu Gothic_MSFontService,sans-serif" font-weight="400" font-size="13" transform="translate(565.239 324)">GetExternalEntity</text><text font-family="Yu Gothic,Yu Gothic_MSFontService,sans-serif" font-weight="400" font-size="13" transform="translate(672.906 324)">()</text><text font-family="Yu Gothic,Yu Gothic_MSFontService,sans-serif" font-weight="400" font-size="13" transform="translate(565.239 340)">GetExternalEntities</text><text font-family="Yu Gothic,Yu Gothic_MSFontService,sans-serif" font-weight="400" font-size="13" transform="translate(684.239 340)">()</text><path d="M719.5 305.5 731.5 299.5 743.5 305.5 731.5 311.5Z" stroke="#000000" stroke-width="1.33333" stroke-miterlimit="8" fill="#FFFFFF" fill-rule="evenodd"/><path d="M744.303 304.705 768.303 304.705 767.97 305.038 767.97 191.5 768.303 191.834 328.5 191.834 328.833 191.5 328.833 214.84 328.167 214.84 328.167 191.167 768.637 191.167 768.637 305.372 744.303 305.372ZM333.455 207.008 328.5 215.502 323.546 207.008C323.453 206.849 323.506 206.645 323.665 206.552 323.824 206.459 324.029 206.513 324.121 206.672L328.788 214.672 328.212 214.672 332.879 206.672C332.972 206.513 333.176 206.459 333.335 206.552 333.494 206.645 333.547 206.849 333.455 207.008Z"/><text font-family="Yu Gothic,Yu Gothic_MSFontService,sans-serif" font-weight="400" font-size="11" transform="translate(311.82 207)">*</text><rect x="556.5" y="409.5" width="162" height="80" stroke="#000000" stroke-width="1.33333" stroke-miterlimit="8" fill="#FFFFFF"/><text font-family="Yu Gothic,Yu Gothic_MSFontService,sans-serif" font-weight="400" font-size="13" transform="translate(589.819 426)">&lt;&lt;Interface&gt;&gt;</text><text font-family="Yu Gothic,Yu Gothic_MSFontService,sans-serif" font-weight="400" font-size="13" transform="translate(584.819 442)">DomainClassDef</text><text font-family="Yu Gothic,Yu Gothic_MSFontService,sans-serif" font-style="oblique" font-weight="400" font-size="11" transform="translate(565.239 456)">GetIdForExternalStorage</text><text font-family="Yu Gothic,Yu Gothic_MSFontService,sans-serif" font-style="oblique" font-weight="400" font-size="11" transform="translate(687.073 456)">(</text><text font-family="Yu Gothic,Yu Gothic_MSFontService,sans-serif" font-style="oblique" font-weight="400" font-size="11" transform="translate(691.239 456)">)</text><rect x="556.5" y="564.5" width="162" height="58" stroke="#000000" stroke-width="1.33333" stroke-miterlimit="8" fill="#FFFFFF"/><text font-family="Yu Gothic,Yu Gothic_MSFontService,sans-serif" font-weight="400" font-size="13" transform="translate(589.819 581)">&lt;&lt;Interface&gt;&gt;</text><text font-family="Yu Gothic,Yu Gothic_MSFontService,sans-serif" font-weight="400" font-size="13" transform="translate(582.239 597)">DomainClass</text><text font-family="Yu Gothic,Yu Gothic_MSFontService,sans-serif" font-style="oblique" font-weight="700" font-size="13" transform="translate(663.739 597)">CKL</text><path d="M627.5 507.5 637.5 489.5 647.5 507.5Z" stroke="#000000" stroke-width="1.33333" stroke-miterlimit="8" fill="#FFFFFF" fill-rule="evenodd"/><path d="M0 0 0.361575 57.0925" stroke="#000000" stroke-width="0.666667" stroke-miterlimit="8" fill="none" fill-rule="evenodd" transform="matrix(-1 0 0 1 637.862 507.5)"/><rect x="556.5" y="663.5" width="162" height="59" stroke="#000000" stroke-width="1.33333" stroke-miterlimit="8" fill="#FFFFFF"/><text font-family="Yu Gothic,Yu Gothic_MSFontService,sans-serif" font-weight="400" font-size="13" transform="translate(566.819 680)">DomainClass</text><text font-family="Yu Gothic,Yu Gothic_MSFontService,sans-serif" font-style="oblique" font-weight="700" font-size="13" transform="translate(648.319 680)">CKL</text><text font-family="Yu Gothic,Yu Gothic_MSFontService,sans-serif" font-weight="400" font-size="13" transform="translate(675.652 680)">Base</text><path d="M626.5 641.5 637 623.5 647.5 641.5Z" stroke="#000000" stroke-width="1.33333" stroke-miterlimit="8" fill="#FFFFFF" fill-rule="evenodd"/><path d="M637.5 641.5 637.5 664.254" stroke="#000000" stroke-width="0.666667" stroke-miterlimit="8" fill="none" fill-rule="evenodd"/><path d="M0-0.333333 24.3333-0.333333 24.3333 345.553 1.99332 345.553 1.99332 344.886 24 344.886 23.6667 345.219 23.6667 0 24 0.333333 0 0.333333ZM9.82538 350.174 1.33179 345.219 9.82538 340.265C9.98439 340.172 10.1885 340.226 10.2813 340.385 10.374 340.544 10.3203 340.748 10.1613 340.84L2.16129 345.507 2.16129 344.931 10.1613 349.598C10.3203 349.691 10.374 349.895 10.2813 350.054 10.1885 350.213 9.98439 350.267 9.82538 350.174Z" transform="matrix(1 0 0 -1 718.5 692.719)"/><path d="M528.5 347.5 540.5 341.5 552.5 347.5 540.5 353.5Z" stroke="#000000" stroke-width="1.33333" stroke-miterlimit="8" fill="#FFFFFF" fill-rule="evenodd"/><path d="M528.5 347.833 504.5 347.833 504.833 347.5 504.833 381.373 504.5 381.04 637.565 381.04 637.565 408.708 636.899 408.708 636.899 381.373 637.232 381.706 504.166 381.706 504.166 347.167 528.5 347.167ZM642.187 400.876 637.232 409.37 632.277 400.876C632.185 400.717 632.238 400.513 632.397 400.42 632.556 400.328 632.76 400.381 632.853 400.54L637.52 408.54 636.944 408.54 641.611 400.54C641.703 400.381 641.908 400.328 642.067 400.42 642.226 400.513 642.279 400.717 642.187 400.876Z"/><text font-family="Yu Gothic,Yu Gothic_MSFontService,sans-serif" font-weight="400" font-size="11" transform="translate(650.461 406)">*</text><rect x="556.5" y="750.5" width="162" height="58" stroke="#000000" stroke-width="1.33333" stroke-miterlimit="8" fill="#FFFFFF"/><text font-family="Yu Gothic,Yu Gothic_MSFontService,sans-serif" font-weight="400" font-size="13" transform="translate(570.239 767)">CIM</text><text font-family="Yu Gothic,Yu Gothic_MSFontService,sans-serif" font-style="oblique" font-weight="700" font-size="13" transform="translate(595.572 767)">DomainName</text><text font-family="Yu Gothic,Yu Gothic_MSFontService,sans-serif" font-weight="400" font-size="13" transform="translate(683.906 767)">Lib</text><path d="M0-0.333333 24.3334-0.333333 24.3334 431.963 0.660025 431.963 0.660025 431.297 24.0001 431.297 23.6668 431.63 23.6668 0 24.0001 0.333333 0 0.333333ZM8.49215 436.585-0.00143998 431.63 8.49215 426.676C8.65117 426.583 8.85527 426.636 8.94803 426.796 9.04079 426.954 8.98708 427.159 8.82806 427.251L0.828062 431.918 0.828062 431.342 8.82806 436.009C8.98708 436.102 9.04079 436.306 8.94803 436.465 8.85527 436.624 8.65117 436.677 8.49215 436.585Z" transform="matrix(1 0 0 -1 718.5 779.13)"/><path d="M527.5 552.094C527.5 542.929 534.929 535.5 544.094 535.5L735.906 535.5C745.071 535.5 752.5 542.929 752.5 552.094L752.5 803.906C752.5 813.071 745.071 820.5 735.906 820.5L544.094 820.5C534.929 820.5 527.5 813.071 527.5 803.906Z" stroke="#2F528F" stroke-width="1.33333" stroke-miterlimit="8" stroke-dasharray="5.33333 4" fill="none" fill-rule="evenodd"/><text font-family="Yu Gothic,Yu Gothic_MSFontService,sans-serif" font-weight="400" font-size="13" transform="translate(522.132 741)">概念モデルから自動生成されるコード</text><text font-family="Yu Gothic,Yu Gothic_MSFontService,sans-serif" font-weight="400" font-size="11" transform="translate(345.114 209)">externalEntities</text><text font-family="Yu Gothic,Yu Gothic_MSFontService,sans-serif" font-weight="400" font-size="13" transform="translate(257.79 720)">手書きでロジック実装</text><path d="M0.927975-0.372643 26.2634 62.719 24.4075 63.4643-0.927975 0.372643ZM31.5219 60.6074C32.894 64.0241 31.2364 67.9061 27.8197 69.2782 24.403 70.6502 20.521 68.9926 19.1489 65.5759 17.7769 62.1592 19.4344 58.2772 22.8511 56.9051 26.2679 55.5331 30.1499 57.1907 31.5219 60.6074Z" fill="#C00000" transform="matrix(1 0 0 -1 325 704.092)"/></g></svg>