<svg width="608" height="828" xmlns="http://www.w3.org/2000/svg" xmlns:xlink="http://www.w3.org/1999/xlink" overflow="hidden"><defs><clipPath id="clip0"><rect x="172" y="40" width="608" height="828"/></clipPath></defs><g clip-path="url(#clip0)" transform="translate(-172 -40)"><rect x="174.5" y="41.5001" width="604" height="826" stroke="#D9D9D9" stroke-width="1.33333" stroke-miterlimit="8" fill="none"/><rect x="234.5" y="98.5001" width="206" height="126" stroke="#000000" stroke-width="1.33333" stroke-miterlimit="8" fill="#FFFFFF"/><text font-family="Yu Gothic,Yu Gothic_MSFontService,sans-serif" font-weight="400" font-size="13" transform="translate(290.164 114)">&lt;&lt;interface&gt;&gt;</text><text font-family="Yu Gothic,Yu Gothic_MSFontService,sans-serif" font-weight="400" font-size="13" transform="translate(261.578 130)">IExternalStorageAdaptor</text><text font-family="Yu Gothic,Yu Gothic_MSFontService,sans-serif" font-style="oblique" font-weight="400" font-size="11" transform="translate(243.164 144)">CheckInstanceState</text><text font-family="Yu Gothic,Yu Gothic_MSFontService,sans-serif" font-weight="400" font-size="11" transform="translate(342.498 144)">()</text><text font-family="Yu Gothic,Yu Gothic_MSFontService,sans-serif" font-style="oblique" font-weight="400" font-size="11" transform="translate(243.164 157)">CechkTraverseState</text><text font-family="Yu Gothic,Yu Gothic_MSFontService,sans-serif" font-weight="400" font-size="11" transform="translate(343.164 157)">()</text><text font-family="Yu Gothic,Yu Gothic_MSFontService,sans-serif" font-style="oblique" font-weight="400" font-size="11" transform="translate(243.164 169)">ClassPropertiesUpdator</text><text font-family="Yu Gothic,Yu Gothic_MSFontService,sans-serif" font-weight="400" font-size="11" transform="translate(361.164 169)">()</text><text font-family="Yu Gothic,Yu Gothic_MSFontService,sans-serif" font-style="oblique" font-weight="400" font-size="11" transform="translate(243.164 182)">RelationshipUpdator</text><text font-family="Yu Gothic,Yu Gothic_MSFontService,sans-serif" font-weight="400" font-size="11" transform="translate(344.498 182)">()</text><text font-family="Yu Gothic,Yu Gothic_MSFontService,sans-serif" font-style="oblique" font-weight="400" font-size="11" transform="translate(243.164 195)">EventUpdator</text><text font-family="Yu Gothic,Yu Gothic_MSFontService,sans-serif" font-weight="400" font-size="11" transform="translate(310.831 195)">()</text><text font-family="Yu Gothic,Yu Gothic_MSFontService,sans-serif" font-style="oblique" font-weight="400" font-size="11" transform="translate(243.164 208)">ClearCache</text><text font-family="Yu Gothic,Yu Gothic_MSFontService,sans-serif" font-weight="400" font-size="11" transform="translate(300.164 208)">()</text><rect x="527.5" y="98.5001" width="226" height="126" stroke="#000000" stroke-width="1.33333" stroke-miterlimit="8" fill="#FFFFFF"/><text font-family="Yu Gothic,Yu Gothic_MSFontService,sans-serif" font-weight="400" font-size="13" transform="translate(593.302 114)">&lt;&lt;interface&gt;&gt;</text><text font-family="Yu Gothic,Yu Gothic_MSFontService,sans-serif" font-weight="400" font-size="13" transform="translate(557.802 130)">IExternalStorageAdaptable</text><text font-family="Yu Gothic,Yu Gothic_MSFontService,sans-serif" font-weight="400" font-size="11" transform="translate(536.389 144)">AddCInstanceStateNtifyHandler</text><text font-family="Yu Gothic,Yu Gothic_MSFontService,sans-serif" font-weight="400" font-size="11" transform="translate(694.389 144)">()</text><text font-family="Yu Gothic,Yu Gothic_MSFontService,sans-serif" font-weight="400" font-size="11" transform="translate(536.389 157)">AddCLinkChangedStateNotifyHandler</text><text font-family="Yu Gothic,Yu Gothic_MSFontService,sans-serif" font-weight="400" font-size="11" transform="translate(722.722 157)">()</text><text font-family="Yu Gothic,Yu Gothic_MSFontService,sans-serif" font-weight="400" font-size="11" transform="translate(536.389 169)">AddEventChangedStateNotifyHandler</text><text font-family="Yu Gothic,Yu Gothic_MSFontService,sans-serif" font-weight="400" font-size="11" transform="translate(722.222 169)">(</text><text font-family="Yu Gothic,Yu Gothic_MSFontService,sans-serif" font-weight="400" font-size="11" transform="translate(726.389 169)">)</text><path d="M327.5 242.5 337.5 224.5 347.5 242.5Z" stroke="#000000" stroke-width="1.33333" stroke-miterlimit="8" fill="#FFFFFF" fill-rule="evenodd"/><rect x="234.5" y="290.5" width="206" height="85" stroke="#000000" stroke-width="1.33333" stroke-miterlimit="8" fill="#FFFFFF"/><text font-family="Yu Gothic,Yu Gothic_MSFontService,sans-serif" font-weight="400" font-size="13" transform="translate(291.664 307)">&lt;&lt;Abstract&gt;&gt;</text><text font-family="Yu Gothic,Yu Gothic_MSFontService,sans-serif" font-weight="400" font-size="13" transform="translate(256.664 323)">AzureDIgitalTwinsAdaptor</text><text font-family="Yu Gothic,Yu Gothic_MSFontService,sans-serif" font-style="oblique" font-weight="400" font-size="11" transform="translate(243.164 337)">GetDTDLWwinModelId</text><text font-family="Yu Gothic,Yu Gothic_MSFontService,sans-serif" font-weight="400" font-size="11" transform="translate(357.164 337)">()</text><text font-family="Yu Gothic,Yu Gothic_MSFontService,sans-serif" font-style="oblique" font-weight="400" font-size="11" transform="translate(243.164 350)">GetDTDLRelationshipDef</text><text font-family="Yu Gothic,Yu Gothic_MSFontService,sans-serif" font-weight="400" font-size="11" transform="translate(368.831 350)">()</text><path d="M337.5 242.5 337.5 290.524" stroke="#000000" stroke-width="0.666667" stroke-miterlimit="8" stroke-dasharray="0.666667 0.666667" fill="none" fill-rule="evenodd"/><rect x="198.5" y="562.5" width="278" height="85" stroke="#000000" stroke-width="1.33333" stroke-miterlimit="8" fill="#FFFFFF"/><text font-family="Yu Gothic,Yu Gothic_MSFontService,sans-serif" font-weight="400" font-size="13" transform="translate(293.724 579)">&lt;&lt;Domain&gt;&gt;</text><text font-family="Yu Gothic,Yu Gothic_MSFontService,sans-serif" font-style="oblique" font-weight="700" font-size="13" transform="translate(212.557 595)">DomainName</text><text font-family="Yu Gothic,Yu Gothic_MSFontService,sans-serif" font-weight="400" font-size="13" transform="translate(300.891 595)">AzureDIgitalTwinsAdaptor</text><text font-family="Yu Gothic,Yu Gothic_MSFontService,sans-serif" font-weight="400" font-size="11" transform="translate(207.477 609)">cClassToTwinModel</text><text font-family="Yu Gothic,Yu Gothic_MSFontService,sans-serif" font-weight="400" font-size="11" transform="translate(207.477 622)">cRelationshipToTwinRelationships</text><path d="M327.5 392.5 337.5 375.5 347.5 392.5Z" stroke="#000000" stroke-width="1.33333" stroke-miterlimit="8" fill="#FFFFFF" fill-rule="evenodd"/><path d="M337.5 392.5 337.5 562.133" stroke="#000000" stroke-width="0.666667" stroke-miterlimit="8" fill="none" fill-rule="evenodd"/><path d="M0-0.333333 44.0142-0.333333 44.0142 108.251 43.6809 107.918 86.7018 107.918 86.7018 108.584 43.3476 108.584 43.3476 0 43.6809 0.333333 0 0.333333ZM78.8697 103.296 87.3633 108.251 78.8697 113.206C78.7107 113.298 78.5066 113.245 78.4139 113.086 78.3211 112.927 78.3748 112.722 78.5338 112.63L86.5338 107.963 86.5338 108.539 78.5338 103.872C78.3748 103.779 78.3211 103.575 78.4139 103.416 78.5066 103.257 78.7107 103.204 78.8697 103.296Z" transform="matrix(1 0 0 -1 440.5 311.751)"/><rect x="556.5" y="280.5" width="162" height="80" stroke="#000000" stroke-width="1.33333" stroke-miterlimit="8" fill="#FFFFFF"/><text font-family="Yu Gothic,Yu Gothic_MSFontService,sans-serif" font-weight="400" font-size="13" transform="translate(591.486 297)">&lt;&lt;Abstract&gt;&gt;</text><text font-family="Yu Gothic,Yu Gothic_MSFontService,sans-serif" font-weight="400" font-size="13" transform="translate(577.652 313)">InstanceRepository</text><text font-family="Yu Gothic,Yu Gothic_MSFontService,sans-serif" font-weight="400" font-size="13" transform="translate(565.239 329)">SyncChangedState</text><text font-family="Yu Gothic,Yu Gothic_MSFontService,sans-serif" font-weight="400" font-size="13" transform="translate(681.739 329)">(</text><text font-family="Yu Gothic,Yu Gothic_MSFontService,sans-serif" font-weight="400" font-size="13" transform="translate(686.906 329)">)</text><path d="M626.5 242.5 637 224.5 647.5 242.5Z" stroke="#000000" stroke-width="1.33333" stroke-miterlimit="8" fill="#FFFFFF" fill-rule="evenodd"/><path d="M0 0 0.000104987 38.5176" stroke="#000000" stroke-width="0.666667" stroke-miterlimit="8" fill="none" fill-rule="evenodd" transform="matrix(-1 0 0 1 637.5 242.5)"/><path d="M719.5 305.5 731.5 299.5 743.5 305.5 731.5 311.5Z" stroke="#000000" stroke-width="1.33333" stroke-miterlimit="8" fill="#FFFFFF" fill-rule="evenodd"/><path d="M744.058 305.174 768.057 305.174 767.723 305.508 767.723 74.4996 768.057 74.8329 337.5 74.8329 337.833 74.4996 337.833 97.8401 337.167 97.8401 337.167 74.1662 768.39 74.1662 768.39 305.841 744.058 305.841ZM342.455 90.008 337.5 98.5016 332.545 90.008C332.453 89.849 332.506 89.6449 332.665 89.5521 332.824 89.4594 333.029 89.5131 333.121 89.6721L337.788 97.6721 337.212 97.6721 341.879 89.6721C341.972 89.5131 342.176 89.4594 342.335 89.5521 342.494 89.6449 342.547 89.849 342.455 90.008Z"/><text font-family="Yu Gothic,Yu Gothic_MSFontService,sans-serif" font-weight="400" font-size="11" transform="translate(321.065 90)">1</text><rect x="556.5" y="409.5" width="162" height="80" stroke="#000000" stroke-width="1.33333" stroke-miterlimit="8" fill="#FFFFFF"/><text font-family="Yu Gothic,Yu Gothic_MSFontService,sans-serif" font-weight="400" font-size="13" transform="translate(589.819 426)">&lt;&lt;Interface&gt;&gt;</text><text font-family="Yu Gothic,Yu Gothic_MSFontService,sans-serif" font-weight="400" font-size="13" transform="translate(584.819 442)">DomainClassDef</text><text font-family="Yu Gothic,Yu Gothic_MSFontService,sans-serif" font-style="oblique" font-weight="400" font-size="11" transform="translate(565.239 456)">GetIdForExternalStorage</text><text font-family="Yu Gothic,Yu Gothic_MSFontService,sans-serif" font-style="oblique" font-weight="400" font-size="11" transform="translate(687.073 456)">(</text><text font-family="Yu Gothic,Yu Gothic_MSFontService,sans-serif" font-style="oblique" font-weight="400" font-size="11" transform="translate(691.239 456)">)</text><rect x="556.5" y="564.5" width="162" height="58" stroke="#000000" stroke-width="1.33333" stroke-miterlimit="8" fill="#FFFFFF"/><text font-family="Yu Gothic,Yu Gothic_MSFontService,sans-serif" font-weight="400" font-size="13" transform="translate(589.819 581)">&lt;&lt;Interface&gt;&gt;</text><text font-family="Yu Gothic,Yu Gothic_MSFontService,sans-serif" font-weight="400" font-size="13" transform="translate(582.239 597)">DomainClass</text><text font-family="Yu Gothic,Yu Gothic_MSFontService,sans-serif" font-style="oblique" font-weight="700" font-size="13" transform="translate(663.739 597)">CKL</text><path d="M627.5 507.5 637.5 489.5 647.5 507.5Z" stroke="#000000" stroke-width="1.33333" stroke-miterlimit="8" fill="#FFFFFF" fill-rule="evenodd"/><path d="M0 0 0.361575 57.0925" stroke="#000000" stroke-width="0.666667" stroke-miterlimit="8" fill="none" fill-rule="evenodd" transform="matrix(-1 0 0 1 637.862 507.5)"/><rect x="556.5" y="663.5" width="162" height="59" stroke="#000000" stroke-width="1.33333" stroke-miterlimit="8" fill="#FFFFFF"/><text font-family="Yu Gothic,Yu Gothic_MSFontService,sans-serif" font-weight="400" font-size="13" transform="translate(566.819 680)">DomainClass</text><text font-family="Yu Gothic,Yu Gothic_MSFontService,sans-serif" font-style="oblique" font-weight="700" font-size="13" transform="translate(648.319 680)">CKL</text><text font-family="Yu Gothic,Yu Gothic_MSFontService,sans-serif" font-weight="400" font-size="13" transform="translate(675.652 680)">Base</text><path d="M626.5 641.5 637 623.5 647.5 641.5Z" stroke="#000000" stroke-width="1.33333" stroke-miterlimit="8" fill="#FFFFFF" fill-rule="evenodd"/><path d="M637.5 641.5 637.5 664.254" stroke="#000000" stroke-width="0.666667" stroke-miterlimit="8" fill="none" fill-rule="evenodd"/><path d="M0-0.333333 24.3333-0.333333 24.3333 345.553 1.99332 345.553 1.99332 344.886 24 344.886 23.6667 345.219 23.6667 0 24 0.333333 0 0.333333ZM9.82538 350.174 1.33179 345.219 9.82538 340.265C9.98439 340.172 10.1885 340.226 10.2813 340.385 10.374 340.544 10.3203 340.748 10.1613 340.84L2.16129 345.507 2.16129 344.931 10.1613 349.598C10.3203 349.691 10.374 349.895 10.2813 350.054 10.1885 350.213 9.98439 350.267 9.82538 350.174Z" transform="matrix(1 0 0 -1 718.5 692.719)"/><path d="M528.5 347.5 540.5 341.5 552.5 347.5 540.5 353.5Z" stroke="#000000" stroke-width="1.33333" stroke-miterlimit="8" fill="#FFFFFF" fill-rule="evenodd"/><path d="M528.5 347.833 504.5 347.833 504.833 347.5 504.833 381.373 504.5 381.04 637.565 381.04 637.565 408.708 636.899 408.708 636.899 381.373 637.232 381.706 504.166 381.706 504.166 347.167 528.5 347.167ZM642.187 400.876 637.232 409.37 632.277 400.876C632.185 400.717 632.238 400.513 632.397 400.42 632.556 400.328 632.76 400.381 632.853 400.54L637.52 408.54 636.944 408.54 641.611 400.54C641.703 400.381 641.908 400.328 642.067 400.42 642.226 400.513 642.279 400.717 642.187 400.876Z"/><text font-family="Yu Gothic,Yu Gothic_MSFontService,sans-serif" font-weight="400" font-size="11" transform="translate(650.461 406)">*</text><rect x="556.5" y="750.5" width="162" height="58" stroke="#000000" stroke-width="1.33333" stroke-miterlimit="8" fill="#FFFFFF"/><text font-family="Yu Gothic,Yu Gothic_MSFontService,sans-serif" font-weight="400" font-size="13" transform="translate(570.239 767)">CIM</text><text font-family="Yu Gothic,Yu Gothic_MSFontService,sans-serif" font-style="oblique" font-weight="700" font-size="13" transform="translate(595.572 767)">DomainName</text><text font-family="Yu Gothic,Yu Gothic_MSFontService,sans-serif" font-weight="400" font-size="13" transform="translate(683.906 767)">Lib</text><path d="M0-0.333333 24.3334-0.333333 24.3334 431.963 0.660025 431.963 0.660025 431.297 24.0001 431.297 23.6668 431.63 23.6668 0 24.0001 0.333333 0 0.333333ZM8.49215 436.585-0.00143998 431.63 8.49215 426.676C8.65117 426.583 8.85527 426.636 8.94803 426.796 9.04079 426.954 8.98708 427.159 8.82806 427.251L0.828062 431.918 0.828062 431.342 8.82806 436.009C8.98708 436.102 9.04079 436.306 8.94803 436.465 8.85527 436.624 8.65117 436.677 8.49215 436.585Z" transform="matrix(1 0 0 -1 718.5 779.13)"/><path d="M189.5 556.519C189.5 544.911 198.911 535.5 210.519 535.5L731.481 535.5C743.09 535.5 752.5 544.911 752.5 556.519L752.5 799.481C752.5 811.09 743.09 820.5 731.481 820.5L210.519 820.5C198.911 820.5 189.5 811.09 189.5 799.481Z" stroke="#2F528F" stroke-width="1.33333" stroke-miterlimit="8" stroke-dasharray="5.33333 4" fill="none" fill-rule="evenodd"/><text font-family="Yu Gothic,Yu Gothic_MSFontService,sans-serif" font-weight="400" font-size="13" transform="translate(273.864 703)">概念モデルから自動生成されるコード</text></g></svg>