<svg width="107" height="201" xmlns="http://www.w3.org/2000/svg" xmlns:xlink="http://www.w3.org/1999/xlink" overflow="hidden"><defs><clipPath id="clip0"><rect x="597" y="377" width="107" height="201"/></clipPath></defs><g clip-path="url(#clip0)" transform="translate(-597 -377)"><path d="M622.5 426.5 678.5 426.5 678.5 474.167 669.167 483.5 622.5 483.5Z" fill="#FFFFFF" fill-rule="evenodd"/><path d="M669.167 483.5 671.033 476.033 678.5 474.167Z" fill="#CDCDCD" fill-rule="evenodd"/><path d="M669.167 483.5 671.033 476.033 678.5 474.167 669.167 483.5 622.5 483.5 622.5 426.5 678.5 426.5 678.5 474.167" stroke="#000000" stroke-width="1.33333" stroke-miterlimit="8" fill="none" fill-rule="evenodd"/><text font-family="Yu Gothic,Yu Gothic_MSFontService,sans-serif" font-weight="400" font-size="11" transform="translate(632.498 447)">Project</text><text font-family="Yu Gothic,Yu Gothic_MSFontService,sans-serif" font-weight="400" font-size="11" transform="translate(641.078 460)">File</text><path d="M630.5 491.5 687.5 491.5 687.5 539 678 548.5 630.5 548.5Z" fill="#FFFFFF" fill-rule="evenodd"/><path d="M678 548.5 679.9 540.9 687.5 539Z" fill="#CDCDCD" fill-rule="evenodd"/><path d="M678 548.5 679.9 540.9 687.5 539 678 548.5 630.5 548.5 630.5 491.5 687.5 491.5 687.5 539" stroke="#000000" stroke-width="1.33333" stroke-miterlimit="8" fill="none" fill-rule="evenodd"/><text font-family="Yu Gothic,Yu Gothic_MSFontService,sans-serif" font-weight="400" font-size="11" transform="translate(651.872 512)">C#</text><text font-family="Yu Gothic,Yu Gothic_MSFontService,sans-serif" font-weight="400" font-size="11" transform="translate(645.872 525)">Code</text><path d="M626.5 496.5 682.5 496.5 682.5 543.167 673.167 552.5 626.5 552.5Z" fill="#FFFFFF" fill-rule="evenodd"/><path d="M673.167 552.5 675.033 545.033 682.5 543.167Z" fill="#CDCDCD" fill-rule="evenodd"/><path d="M673.167 552.5 675.033 545.033 682.5 543.167 673.167 552.5 626.5 552.5 626.5 496.5 682.5 496.5 682.5 543.167" stroke="#000000" stroke-width="1.33333" stroke-miterlimit="8" fill="none" fill-rule="evenodd"/><text font-family="Yu Gothic,Yu Gothic_MSFontService,sans-serif" font-weight="400" font-size="11" transform="translate(646.974 516)">C#</text><text font-family="Yu Gothic,Yu Gothic_MSFontService,sans-serif" font-weight="400" font-size="11" transform="translate(640.974 529)">Code</text><path d="M620.5 501.5 676.5 501.5 676.5 549.167 667.167 558.5 620.5 558.5Z" fill="#FFFFFF" fill-rule="evenodd"/><path d="M667.167 558.5 669.033 551.033 676.5 549.167Z" fill="#CDCDCD" fill-rule="evenodd"/><path d="M667.167 558.5 669.033 551.033 676.5 549.167 667.167 558.5 620.5 558.5 620.5 501.5 676.5 501.5 676.5 549.167" stroke="#000000" stroke-width="1.33333" stroke-miterlimit="8" fill="none" fill-rule="evenodd"/><text font-family="Yu Gothic,Yu Gothic_MSFontService,sans-serif" font-weight="400" font-size="11" transform="translate(641.096 522)">C#</text><text font-family="Yu Gothic,Yu Gothic_MSFontService,sans-serif" font-weight="400" font-size="11" transform="translate(635.096 535)">Code</text><path d="M615.5 507.5 671.5 507.5 671.5 555.167 662.167 564.5 615.5 564.5Z" fill="#FFFFFF" fill-rule="evenodd"/><path d="M662.167 564.5 664.033 557.033 671.5 555.167Z" fill="#CDCDCD" fill-rule="evenodd"/><path d="M662.167 564.5 664.033 557.033 671.5 555.167 662.167 564.5 615.5 564.5 615.5 507.5 671.5 507.5 671.5 555.167" stroke="#000000" stroke-width="1.33333" stroke-miterlimit="8" fill="none" fill-rule="evenodd"/><text font-family="Yu Gothic,Yu Gothic_MSFontService,sans-serif" font-weight="400" font-size="11" transform="translate(636.198 528)">C#</text><text font-family="Yu Gothic,Yu Gothic_MSFontService,sans-serif" font-weight="400" font-size="11" transform="translate(630.198 541)">Code</text><path d="M598 395.334C598 385.761 605.761 378 615.334 378L684.666 378C694.239 378 702 385.761 702 395.334L702 558.666C702 568.239 694.239 576 684.666 576L615.334 576C605.761 576 598 568.239 598 558.666Z" stroke="#000000" stroke-width="2" stroke-miterlimit="8" stroke-dasharray="2 2" fill="none" fill-rule="evenodd"/><text font-family="Yu Gothic,Yu Gothic_MSFontService,sans-serif" font-weight="400" font-size="13" transform="translate(617.914 400)">Generated</text><text font-family="Yu Gothic,Yu Gothic_MSFontService,sans-serif" font-weight="400" font-size="13" transform="translate(635.414 416)">File</text><text font-family="Yu Gothic,Yu Gothic_MSFontService,sans-serif" font-weight="400" font-size="13" transform="translate(658.081 416)">s</text></g></svg>